<?xml version="1.0" encoding="UTF-8"?>
<svg id="_レイヤー_1" data-name="レイヤー_1" xmlns="http://www.w3.org/2000/svg" version="1.1" viewBox="0 0 1406 1030">
  <!-- Generator: Adobe Illustrator 30.2.1, SVG Export Plug-In . SVG Version: 2.1.1 Build 1)  -->
  <defs>
    <style>
      .st0 {
        fill: #fdf6d4;
      }
    </style>
  </defs>
  <path class="st0" d="M1165.21,781.67l-5.03,4.7.94,3.54,137.45-38.93c-6.97,13.52-12.04,22.22-21.28,36.86-62.16,20.47-124.31,40.96-186.45,61.43l-1.39.46-.14.24c-22.08,7.2-33.6,10.97-56.13,18.32h-.02c-12.83,4.23-21.36,7.04-31.38,10.34l3.81-3.41,1.98-1.77-1.16-2.28c-21.91-42.63-42.89-85.71-64.42-128.6l-1.14-2.28-2.79.16q-.39.02-.79.04l-2.77.16-.81,2.37c-22.63,65.49-50.77,125.9-86.76,186.5-31.08,10.24-48.67,16.04-77.31,25.48,3.75-6.05,6.76-11.08,11.26-18.76l7.9-13.52-13.83,8.93c-34.62,22.4-71.28,43.62-109.34,57.6-3.65,1.35-10,4.01-18.15,7.33-12.22,4.96-28.39,11.3-44.5,16.39-7.72,2.44-15.32,4.34-22.48,5.76-7.7,1.24-15.44,2.31-23.22,3.21-12,.62-44.42-.13-74.58-.13h-5.97c8.7-2.46,17.11-5.43,25.15-9.06,41.12-18.46,73.97-51.04,100.24-90.99,39.39-59.93,64.11-136.63,79.24-208.74.61-2.97,1.18-5.92,1.77-8.89,14.38-15.66,30.12-29.75,47.19-41.41l4.32-2.48.2-2.28s.37-3.37.98-9.06c5.34-43.44,8.04-86.25,8.04-128.92,0-8.77-.14-17.53-.37-26.3-.14-5.34-.33-11.1-.57-17.21-.02-.49-.04-1-.06-1.51-1.28-30-4.26-68.26-10.33-108.36l-.1-.71c-1.22-7.89-2.53-15.88-3.99-23.88l-.45-2.62-44.01-6.42c-2.67-13.74-5.74-27.71-9.14-41.74-.12-.51-.24-1.02-.37-1.53-.84-3.39-1.69-6.78-2.57-10.17-.57-2.24-1.14-4.48-1.75-6.73-.59-2.26-1.2-4.5-1.81-6.76-.96-3.43-1.91-6.84-2.91-10.26-.39-1.39-.79-2.75-1.2-4.12-1.3-4.45-2.65-8.86-4.05-13.29-.16-.51-.33-1.04-.49-1.55-8.78-27.58-19.23-54.59-31.65-79.96-.12-.29-.27-.57-.39-.84-4.46-9.08-9.19-17.94-14.15-26.54-.22-.36-.43-.75-.65-1.13-1.45-2.46-2.91-4.9-4.4-7.33-.61-1-1.24-2-1.85-3.01-1.02-1.6-1.98-3.24-2.99-4.83-.47-.71-.96-1.39-1.43-2.1-.41-.6-.81-1.18-1.2-1.77-2.75-4.12-5.56-8.13-8.43-12.08-1.06-1.44-2.12-2.9-3.2-4.32-1.32-1.73-2.65-3.46-4.01-5.18-1.28-1.64-2.63-3.24-3.95-4.85-1.61-1.97-3.24-3.9-4.89-5.81-1.93-2.21-3.89-4.41-5.89-6.54-1.18-1.26-2.36-2.48-3.56-3.72-.81-.86-1.63-1.73-2.46-2.59-.9-.89-1.83-1.75-2.73-2.62-1.12-1.09-2.24-2.19-3.36-3.26-2.75-2.57-5.52-5.07-8.37-7.49-.81-.69-1.65-1.35-2.48-2.04-2.26-1.88-4.54-3.7-6.86-5.47-1.14-.86-2.28-1.71-3.42-2.55-2.36-1.71-4.75-3.39-7.19-5.01-.69-.46-1.34-.97-2.04-1.42-.29-.2-.59-.36-.88-.55l-.26-.16c-2.42-1.57-4.89-3.06-7.37-4.5-.41-.24-.79-.46-1.2-.69-2.57-1.48-5.17-2.9-7.8-4.25l-.06-.04c-2.67-1.37-5.4-2.66-8.13-3.9-.18-.07-.37-.18-.55-.26-.35-.16-.69-.29-1.04-.44-2.36-1.04-4.75-2.04-7.15-2.99-.55-.2-1.08-.42-1.61-.62-4.91-1.88-9.9-3.57-15.03-5.05,8.68,0,17.84-.02,27.41-.02h.31c36.48,0,72.62,5.76,106.66,16.97,24.3,8.02,48.57,16.02,72.85,24.02,41.1,68.43,73.18,137.22,98.41,211.42l7.8-1.68c-13.22-66.97-31.49-131.95-61.18-194.91,24.17,7.98,39.02,12.87,65.33,21.54,49.37,53.39,95.43,107.98,138.83,165.25l1.61,2.13,2.77-.67c.43-.11.41-.09.84-.2l2.89-.71.04-2.7c.24-12.16.45-24.28.45-36.38,0-26.54-1.02-53.01-4.83-79.69,34.24,11.28,53.52,17.64,89.3,29.44,29.02,36.02,55.35,73.75,78.59,112.92l7.29-3.03c-15.27-34.19-31.49-65.78-50.32-98.17,59,19.45,117.98,38.9,176.98,58.36,7.62,12.03,12.04,19.49,17.88,30.29-33.93-9.9-53.66-15.68-90.22-26.36l-8.86-2.59,3.97,7.55c6.88,13.05,10.04,19.52,16.07,32.81l.73,1.62,1.87.49c9.08,2.37,17.01,4.45,24.38,6.38l1.24.31c20.51,5.38,36.82,9.64,61.89,16.2,5.66,12.58,8.84,20.2,13.14,31.88-30.55-6.67-48-10.48-80.65-17.61l-6.99-1.51,2.22,6.12c5.6,15.55,8.09,23.26,12.59,39.02l.61,2.21,2.48.44c36.84,6.54,55.72,9.9,91.73,16.28,3.85,13.62,5.84,21.8,8.49,34.87-6.66-.84-11.47-1.44-19.41-2.46l-5.52-.69,1.02,4.92c6.84,32.94,9.96,66.58,9.96,100.25,0,24.73-1.69,49.47-4.77,73.93l-.55,4.41,4.93-.44c25.5-2.26,39.65-3.5,62.69-5.54-62.75,66.49-127.53,131.13-194.78,194.09Z"/>
  <g>
    <g>
      <path d="M1406.26,583.9l-1.48-2.2c-.22-.33-.24-.36-.45-.67l-1.32-1.95-2.26.2-65.75-1.96c2.19-20.66,3.47-41.46,3.47-62.3,0-30.88-2.66-61.77-8.33-92.19l23.65-1.15.43.05-.02-.07h.06s-6.64-31.2-11.2-47.15l-.61-2.2-2.48-.44c-36.75-6.53-55.59-9.87-91.53-16.26-.51-1.73-.97-3.36-1.44-4.95l78.61-6.87.47-.16h-.04l-.65-1.8-1.83-5.06c-5.63-15.58-8.96-23.77-15.99-39.28l-.73-1.6-1.87-.49c-18.59-4.87-32.37-8.47-46.34-12.13l46.38-5.64-.02-.18.06.02-.08-.16-3.88-7.36c-8.39-15.91-13.04-23.93-22.86-39.39l-.73-1.15-1.38-.45c-62.56-20.62-125.11-41.24-187.67-61.88l-9.59-3.15-.06-.13-.18.04h-.02l-8.86,1.47c-1.34-1.69-2.64-3.38-4-5.07l-.71-.87-1.16-.38c-38.58-12.73-57.86-19.09-96.47-31.8l-5.81-1.93-.02-.29-75.26,17.11c-17.01-19.64-34.4-39.08-52.22-58.33l-.69-.75-1.02-.33c-29.97-9.89-44.94-14.82-74.91-24.71l-8.82-2.89v-.02l-16.76,5.02c-3.25-5.62-3.66-6.27-7.03-11.89l-.73-1.2-1.42-.47c-24.71-8.15-49.41-16.29-74.12-24.44-6.44-2.13-12.98-3.98-19.57-5.73-25.42-9.17-71.03-15.27-123.1-15.27s-98.86,6.29-124.06,15.66c-16.13,4.96-32.91,11.47-50.41,19.69-7.01,3.11-10.5,4.66-17.51,7.75C220.76,85.37,127.56,126.58,34.34,167.78L1.98,182.07l-2.24.98v666.21l2.24.98c59.35,26.18,118.67,52.37,178.02,78.56,44.66,19.75,89.3,39.5,133.95,59.23,7.01,3.11,10.5,4.65,17.51,7.75,12.31,5.78,24.26,10.73,35.88,14.86,11.62,4.13,22.92,7.47,33.87,10.06h.02c27.69,6.91,68.94,11.29,115.02,11.29,27.02,0,52.38-1.51,74.32-4.15,1.22-.07,2.3-.16,3.17-.27,12.31-1.4,19.16-1.82,29.95-4.53,16.15-4.09,33.38-10.27,47.93-15.91,7.25-2.82,13.84-5.51,19.24-7.71,5.38-2.22,9.63-3.96,12.05-4.86,23.16-8.49,45.61-19.58,67.35-31.86l15.66,4.49-.02.04,10.28-3.38c35.52-11.71,53.27-17.55,88.81-29.26l1.42-.47.73-1.2c12.5-20.98,23.99-41.99,34.72-63.15l97.97,20.38.08.09,2.86-.93c18.43-6.07,27.88-9.2,46.55-15.35,11.48-3.73,20.07-6.55,28.69-9.35,8.59-2.82,17.21-5.62,28.69-9.36l1.38-.45.16-.24c62.01-20.44,124-40.86,186.01-61.3l1.38-.45.71-1.15c11.38-17.91,16.68-27.26,26.05-45.82l3.7-7.33-3.8-.24-79.4-8.58c48.38-46.99,95.49-94.88,141.51-143.82l1.85-1.96ZM7.75,427.08l17.13-1.91-17.13-.73v-3.58l39.31,1.66-.02.18,68.53-7.67-56.36-2.76-51.46,6.58v-3.64l30.96-3.95-30.96-1.51v-6.47l60.75-8.73-42.89-2.47-17.86,2.85v-3.65l1.1-.16-1.1-.07v-3.58l17.62,1.02,50.85-8.13-39.54-2.56-28.93,5.09v-3.67l13.73-2.4-13.73-.89v-3.6l28.67,1.85,58.11-10.22-83.53-6.13-3.25.67v-4.53l2.97.22,45.35-9.46-48.31-3.93v-3.6l60.73,4.93,42.71-8.91-74.1-6.6-29.34,7.09v-3.71l18.12-4.38-18.12-1.62v-3.6l29.01,2.58,38.32-9.27-63.86-6.2-3.47.96v-4.91l3.09.31,73.47-20.26-76.54-8.6v-3.62l85.86,9.64,146.75-40.46-100.25-14.44L7.77,269.54v-3.82l124.28-40.75-82.41-11.87-41.87,16v-3.89l34.46-13.18-34.46-4.96v-3.64l41.37,5.96,114.16-43.64-75.89-13.37c1.97-.87,3.94-1.75,5.91-2.62l76.54,13.49,153.52-58.68-84.5-19.06c1.85-.8,3.7-1.62,5.55-2.44l85.03,19.17,133.34-50.95-88.18-24.35c2.07-.71,4.12-1.4,6.18-2.06l87.71,24.22,60.83-23.24c1.2.51,2.42.96,3.6,1.49.41.18.79.4,1.2.58l-59.69,22.8,102.54,28.31,18.98-6.22c.93.96,1.87,1.91,2.78,2.91l-15.44,5.05,26.23,7.24c1.3,1.6,2.6,3.2,3.88,4.84l-36.33-10.04-135.98,44.59,115.3,26,82.67-22.78c.63,1.07,1.26,2.15,1.89,3.24l-77.08,21.24,86.35,19.47,10.36-2.49c.51,1.11,1.02,2.22,1.52,3.35l-3.92.95,4.82,1.07c.59,1.36,1.18,2.75,1.77,4.11l-14.51-3.27-166.54,40.28,95.88,16.91,98.42-20.53c.41,1.13.79,2.29,1.2,3.42l-90.05,18.8,101.97,17.97c.71,2.36,1.36,4.75,2.05,7.11l-124.71,21.95,57.54,8.29,72.25-11.55c.3,1.16.59,2.33.87,3.49l-61.11,9.78,64.22,9.24,1.44-.2c.33,1.4.67,2.8,1,4.18l-2.44-.35-164.92,23.71,69.85,7.84,101.38-12.96c.24,1.18.47,2.36.71,3.55l-87,11.11,80.44,9.02,44.13-4.93,6.52,1.04.35,1.8-50.98,5.71h-.02l-204.23,22.84c-.45-1.16-.89-2.31-1.36-3.46l23.41-2.62-25.46-2.27c-.55-1.25-1.12-2.51-1.67-3.76l43.8,3.91-.02.25,44.52-4.98-77.29-7.49-14.14,1.8c-1.18-2.4-2.42-4.78-3.72-7.15l17.8,1.73,87.75-11.22-68.92-7.73-43.11,6.2c-.71-1.11-1.42-2.22-2.15-3.33l31.07-4.46-37.26-4.18c-1-1.33-2.01-2.65-3.07-3.96l54.47,6.11,166.48-23.93-63.55-9.15-158.7,25.35c-.43-.51-.89-1.02-1.32-1.53l-.37-1.84,148.4-23.71-56.95-8.22-105.73,18.62c-1.14-1.02-2.21-2.07-3.37-3.07l97.69-17.18-108.62-15.66-31.51,6.58c-1.97-.84-4.02-1.64-6.05-2.42l27.12-5.66-90.72-13.07-152.18,36.8,16.38,1.84v3.62l-26.6-2.98-76.84,18.58,78.67,7.64,24.77-5.16v3.67l-12.72,2.65,12.72,1.24v3.62l-24.52-2.38-39.96,8.33,64.49,5.76v3.6l-76.58-6.84-42.38,8.84,89.88,7.31,29.07-5.11v3.65l-14.85,2.62,14.85,1.2c0,1.2-.02,2.4-.02,3.6l-28.83-2.35-47.66,8.38,44.13,3.25,32.37-5.18v3.65l-16.74,2.67,16.74,1.22v3.6l-32.18-2.36-59.47,9.51,47.81,3.11,43.85-6.31v3.64l-26.41,3.8,26.41,1.71v3.6l-43.66-2.84-52.07,7.49,53.05,3.06,42.69-5.46v3.62l-23.14,2.96,23.14,1.35v3.58l-42.52-2.45-78.06,9.98,58.39,2.85,62.19-6.96v3.62L7.75,430.7v-3.62ZM208.16,733.6c-.02-72.48-.04-144.96-.06-217.43.02-72.37.04-144.73.06-217.1l255.27,29.8c19.61,24.91,31.45,54.99,38.79,85.94,8.27,34.86,10.85,70.75,12.64,101.36-2.38,40.82-6.18,91.05-23,135.69-7.15,18.98-16.68,36.93-29.38,52.77l-254.31,28.97ZM455.69,712.61l-.22.24c-16.25,17.67-37.1,32.17-64.2,41.81-13.98,3.58-28.89,5.27-44.62,5.27-20.24,0-41.81-2.82-64.35-8.06-24.69-5.75-39.56-9.22-60.3-14.04l233.69-25.22ZM225.98,293.92c18.75-4.47,33.24-7.95,56.32-13.47,22.33-5.2,43.7-8,63.78-8.06,15.62.02,30.46,1.73,44.35,5.27,7.6,2.71,14.83,5.75,21.72,9.04,17.27,8.84,31.51,19.95,43.32,32.77.43.45.81.93,1.22,1.38l-230.7-26.93ZM492.95,1017.38l-54.13-22.08-50.77,14.37c-2.11-.62-4.23-1.27-6.36-1.96l51.69-14.62-129.42-52.81-52.34,12.15c-1.83-.82-3.66-1.62-5.51-2.44l52.05-12.07-147.73-60.26-48.27,8.82c-1.95-.87-3.9-1.73-5.87-2.6l47.95-8.76-108.98-44.46-27.49,4.15v-3.64l20.99-3.16-20.99-8.56v-3.95l28.04,11.46,77.43-11.66-105.47-37.19v-3.85l113.13,39.9,92.93-13.97-138.5-41.5-67.56,8v-3.62l58.9-6.98-58.92-17.64v-3.78l67.96,20.35,63.63-7.53-78.57-20.84-53.03,5.42v-3.62l43.19-4.42-43.19-11.46v-3.73l53.37,14.15,70.07-7.16-85.92-19.89-37.53,3.25v-3.6l26.21-2.27-26.21-6.07v-3.69l37.85,8.76,78.59-6.84-47.06-9.33-69.38,5.44v-3.6l56.38-4.42-44.27-8.8-12.11.87v-6.95l12.37,2.46,34.44-2.44-46.81-8.53v-1.91l-.06.02.18-3.62-.12.02v-.2l28.02-1.76-28.02-4.65v-3.64l43.97,7.29,42.73-2.69-56.89-8.53-29.81,1.65v-.05h.02l-.08-3.58,12.11-.67-12.05-1.8v-3.64l29.77,4.46,46.49-2.56-69-9.24-7.31.35-.1-3.6c0-.44.16-.89.16-1.35l7.44,1,50.79-2.42-58.17-6.86-.02-3.47.1-.02.08-3.58,33.5-1.33-33.28-3.4-.06-3.62,192.59,19.66-.08,3.6-25.32-2.58-65.77,3.13,71.09,8.38,19.93-1.11-.04,3.44.85.11-.85.05v-.16h-.04l.08,3.64-20.07-2.36-58.33,3.22,59.25,7.93,18.89-1.18-.08,3.6-.57.04.45.05v3.62l-18.85-2.51-52.09,3.27,57.95,8.69,13-.93v6.51l-13.19-1.96-47.52,3.36,46.53,7.73,14.18-1.11v7.11l-14.38-2.38-43.46,3.4,47.91,8.73,9.96-.85v6.33l-10.16-1.84-40.29,3.49,50.45,10.02v3.67l-63.31-12.58-79.91,6.95,85.37,19.77,57.84-5.91v3.6l-47.01,4.82,47.01,10.89v3.69l-58.13-13.46-71.05,7.26,78.14,20.73,51.36-6.07,2.68.62c2.66.62,5.16,1.2,7.62,1.78l-52.24,6.18,143.56,38.08,82.45-12.4-32.51-7.53c4.37-.11,8.66-.35,12.9-.73l29.32,6.78,97.28-14.62-64.35-12.78c1.5-.91,3.05-1.82,4.51-2.76l70.36,13.97,49.88-7.51-103.72-18.89c1.14-1,2.23-2.04,3.35-3.06l111.38,20.29,55.14-8.29-153.34-25.44c1.56-1.82,3.11-3.67,4.59-5.55l49.07-5.8-40.41-6.06c.73-1.11,1.44-2.22,2.15-3.33l51.81,7.76,66.25-7.84-90.74-12.15-21.33,2.18c.69-1.25,1.36-2.55,2.03-3.82l4-.42-3.54-.47c.59-1.13,1.16-2.25,1.71-3.38l17.64,2.36,75.93-7.33-87.18-10.27,1.67-3.42-.18-.02,1.69-3.56,64.97-5.64-48.64-4.96-14.4,1.15.65-2.56.18.02,1.12-3.47,248.46,25.35-5.97,3-42.4-4.33v.04l-87.16,8.95,86.9,10.24,28.93-3.42-5.04,4.22-8.59,1.02,7.13.84-3.23,3.24-19.2-2.27-76.8,9.11,82.24,11c-.22,1.18-.49,2.36-.71,3.55l-95.8-12.84-67.09,7.96,157.54,23.6,1.32-.2c-.28,1.31-.57,2.6-.87,3.91l-.45-.07-61.89,9.31,57.74,9.58c-.3,1.16-.61,2.33-.91,3.49l-68.37-11.35-55.69,8.38,118.94,21.68c-.33,1.15-.65,2.31-.98,3.47l-128.97-23.49-50.39,7.58,128.39,25.48,50.89-9.29c-.39,1.29-.75,2.58-1.12,3.87l-40.17,7.33,35.72,7.09c-.37,1.16-.77,2.29-1.14,3.45l-44.21-8.78-101.61,18.57,131.29,30.4c-.45,1.13-.91,2.25-1.36,3.38l-138.87-32.15-87.45,15.97,161.08,42.73,59.9-13.91c-.61,1.4-1.24,2.76-1.85,4.15l-50.59,11.75,39.9,10.58c-.57,1.09-1.12,2.2-1.69,3.29l-45.73-12.13-80.05,18.57,103.56,31.02c-.71,1.05-1.42,2.11-2.13,3.15l-108.54-32.51-107.44,24.95,132.29,46.64,69.02-19.51c-1.34,1.65-2.68,3.29-4.06,4.91l-59.02,16.69,31.37,11.07c-1.08.91-2.19,1.78-3.29,2.69l-34.15-12.06-96.87,27.4,54.88,22.4c-2.13.47-4.29.89-6.46,1.29ZM1198.31,780.84l-5.02,4.69.94,3.53,137.12-38.84c-6.95,13.49-12.01,22.17-21.23,36.77-62.01,20.42-124.02,40.86-186.01,61.28l-1.38.45-.14.24c-22.02,7.18-33.52,10.95-55.99,18.28h-.02c-12.8,4.22-21.31,7.02-31.31,10.31l3.8-3.4,1.97-1.76-1.16-2.27c-21.86-42.53-42.79-85.5-64.26-128.29l-1.14-2.27-2.78.16q-.39.02-.79.04l-2.76.16-.81,2.36c-22.57,65.34-50.65,125.6-86.55,186.06-31,10.22-48.56,16-77.12,25.42,3.74-6.04,6.75-11.06,11.24-18.71l7.88-13.49-13.8,8.91c-34.54,22.35-71.11,43.51-109.08,57.46-3.64,1.35-9.98,4-18.1,7.31-12.19,4.95-28.32,11.27-44.39,16.35-7.7,2.44-15.28,4.33-22.43,5.75-7.68,1.24-15.4,2.31-23.16,3.2-11.97.62-44.31-.13-74.4-.13h-5.95c8.68-2.45,17.07-5.42,25.09-9.04,41.02-18.42,73.79-50.92,100-90.77,39.29-59.79,63.96-136.31,79.05-208.24.61-2.96,1.18-5.91,1.77-8.87,14.34-15.62,30.05-29.68,47.08-41.31l4.31-2.47.2-2.27s.37-3.36.98-9.04c5.32-43.33,8.03-86.05,8.03-128.62,0-8.75-.14-17.49-.37-26.24-.14-5.33-.32-11.07-.57-17.17-.02-.49-.04-1-.06-1.51-1.28-29.93-4.25-68.1-10.3-108.1l-.1-.71c-1.22-7.87-2.52-15.84-3.98-23.82l-.45-2.62-43.91-6.4c-2.66-13.71-5.73-27.64-9.12-41.64-.12-.51-.24-1.02-.37-1.53-.83-3.38-1.69-6.76-2.56-10.15-.57-2.24-1.14-4.47-1.75-6.71-.59-2.25-1.2-4.49-1.81-6.75-.95-3.42-1.91-6.82-2.91-10.24-.39-1.38-.79-2.75-1.2-4.11-1.3-4.44-2.64-8.84-4.04-13.26-.16-.51-.33-1.04-.49-1.55-8.76-27.51-19.18-54.46-31.57-79.77-.12-.29-.26-.56-.39-.84-4.45-9.06-9.16-17.89-14.12-26.48-.22-.36-.43-.75-.65-1.13-1.44-2.45-2.91-4.89-4.39-7.31-.61-1-1.24-2-1.85-3-1.02-1.6-1.97-3.24-2.99-4.82-.47-.71-.95-1.38-1.42-2.09-.41-.6-.81-1.18-1.2-1.76-2.74-4.11-5.55-8.11-8.41-12.06-1.06-1.44-2.11-2.89-3.19-4.31-1.32-1.73-2.64-3.46-4-5.16-1.28-1.64-2.62-3.24-3.94-4.84-1.61-1.96-3.23-3.89-4.88-5.8-1.93-2.2-3.88-4.4-5.87-6.53-1.18-1.25-2.36-2.47-3.56-3.71-.81-.85-1.63-1.73-2.46-2.58-.89-.89-1.83-1.75-2.72-2.62-1.12-1.09-2.24-2.18-3.35-3.25-2.74-2.56-5.51-5.06-8.35-7.47-.81-.69-1.65-1.35-2.48-2.04-2.26-1.87-4.53-3.69-6.85-5.46-1.14-.85-2.28-1.71-3.41-2.55-2.36-1.71-4.73-3.38-7.17-5-.69-.45-1.34-.96-2.03-1.42-.28-.2-.59-.36-.87-.55l-.26-.16c-2.42-1.56-4.88-3.06-7.35-4.49-.41-.24-.79-.45-1.2-.69-2.56-1.47-5.16-2.89-7.78-4.24l-.06-.04c-2.66-1.36-5.38-2.65-8.11-3.89-.18-.07-.37-.18-.55-.25-.35-.16-.69-.29-1.04-.44-2.36-1.04-4.73-2.04-7.13-2.98-.55-.2-1.08-.42-1.61-.62-4.9-1.87-9.87-3.56-14.99-5.04,8.66,0,17.8-.02,27.35-.02h.3c36.39,0,72.45,5.75,106.4,16.93,24.24,8,48.46,15.98,72.68,23.97,41,68.26,73,136.89,98.17,210.92l7.78-1.67c-13.19-66.81-31.41-131.63-61.03-194.44,24.12,7.96,38.93,12.84,65.18,21.49,49.25,53.26,95.21,107.72,138.5,164.86l1.61,2.13,2.76-.67c.43-.11.41-.09.83-.2l2.88-.71.04-2.69c.24-12.13.45-24.22.45-36.3,0-26.48-1.02-52.88-4.82-79.5,34.15,11.26,53.39,17.6,89.09,29.37,28.95,35.93,55.22,73.57,78.4,112.65l7.27-3.02c-15.24-34.11-31.41-65.63-50.2-97.94,58.86,19.4,117.7,38.8,176.56,58.22,7.6,12,12.01,19.44,17.84,30.22-33.85-9.87-53.54-15.64-90.01-26.29l-8.84-2.58,3.96,7.53c6.87,13.02,10.02,19.47,16.03,32.73l.73,1.62,1.87.49c9.06,2.36,16.96,4.44,24.32,6.36l1.24.31c20.46,5.36,36.73,9.62,61.74,16.17,5.65,12.55,8.82,20.15,13.1,31.8-30.48-6.66-47.89-10.46-80.46-17.57l-6.97-1.51,2.21,6.11c5.59,15.51,8.07,23.2,12.56,38.93l.61,2.2,2.48.44c36.75,6.53,55.59,9.87,91.51,16.24,3.84,13.58,5.83,21.75,8.47,34.79-6.64-.84-11.44-1.44-19.36-2.45l-5.51-.69,1.02,4.91c6.83,32.86,9.94,66.43,9.94,100.01,0,24.68-1.69,49.35-4.75,73.75l-.55,4.4,4.92-.44c25.44-2.25,39.56-3.49,62.54-5.53-62.6,66.34-127.23,130.82-194.32,193.62Z"/>
      <g>
        <path d="M1236.92,567.77c-5.8,11.39-16.18,19.75-28.16,29.15l-3.84,3.01,1.16,3.76,5.72-.51c.91-.08,1.66-.15,2.38-.21v.03s4.94-.44,4.94-.44c6.92-.61,10.38-.92,17.3-1.53l3.2-.28.39-2.85c1.65-12.14,2.33-18.33,3.35-30.51l.2-2.35-4.3-1.66-2.32,4.38Z"/>
        <path d="M861.08,453.24l-7.88-2.54.36,4.92v.02c1.61,19.94,2.37,39.94,2.37,59.97,0,38.97-2.87,77.99-7.94,116.64l-.5,3.8,4.27.2c23.18,1.1,43.57,8.43,59.61,20.52l5.46,4.12,1.09-6.31c1.79-10.38,2.69-16.15,4.01-25.73,9.97-.88,15.97-1.41,26.86-2.38l5.44-.48-2.15-4.5c-27.42-57.39-58.61-113.07-91-168.24Z"/>
        <path d="M1029.74,366.31l1.01,4.69,4.75-2.17c10.89-4.98,24.7-7.58,41.28-7.58,6.8,0,14.06.44,21.76,1.32l6.41.73-2.12-5.47c-15.54-40.1-34.26-79.21-55.84-117.03l-1.38-2.42-2.97.53c-.47.08-.4.07-.87.15l-3.1.55-.12,2.83c-1.54,34.91-6.11,70.73-13.03,105.13l-.72,3.56,1.58.24c1.3,5.43,2.06,8.82,3.37,14.93Z"/>
        <path d="M849.53,734.23c-4.92-2.55-10.83-3.97-17.63-3.97-2.94,0-6.04.26-9.32.8-12.46,2.05-23.53,7.18-33.27,14.16-14.62,10.48-26.34,25.09-35.83,40.25-9.49,15.16-16.73,30.9-22.18,43.67-3.43,8.08-7.12,22.83-7.14,36.84.02,8.13,1.22,16.01,4.89,22.25,1.84,3.11,4.35,5.82,7.67,7.72,3.31,1.91,7.37,2.95,11.97,2.94,5.04,0,10.75-1.19,17.31-3.68,21.19-8.07,41.79-21.92,59.11-38.47,17.31-16.55,31.34-35.79,39.2-54.81l-3.11-1.03,3.11,1.03c3.22-7.81,5.12-17.47,5.13-27.21-.01-10.73-2.3-21.59-8.17-30.07-2.94-4.23-6.82-7.87-11.74-10.41Z"/>
        <path d="M960.63,341.37l15.66,2.39-4.06-6.53c-29.18-47-60.11-92.44-93.14-137.38l-1.81-2.46-3.05,1.11c-.54.2-.39.14-.94.34l-3.19,1.16.8,3c13.63,51.35,22.69,101.5,28.21,153.93-12.81-1.62-20.74-2.62-34.95-4.42l-8.57-1.08,4.62,6.55c39.57,56.14,77.07,112.97,112.59,171.18l2.05,3.36,3.61-2.05.76-.43,1.89-1.07-.03-2c-.94-63.16-7.64-123.63-20.45-185.57Z"/>
        <path d="M1106.26,635.93c-8.92,1.05-18.21,1.59-27.59,1.59-12.83,0-25.83-1-38.26-3.03l-4.06-.66-.62,3.66c-.48,2.85-.79,4.63-1.21,6.93-4.71.56-7.91.93-13.37,1.58l-5.77.68,2.77,4.58c24.77,40.97,49.19,82.13,74.01,123.13l1.21,2,2.54-.13c.55-.03.26-.01.8-.04l2.59-.13.92-2.17c13.7-32.23,24.93-66.57,32.83-100.3,3.77-15.53,5.44-23.46,8.26-39.12l.99-5.52-6.02,1.49c-9.61,2.38-19.64,4.25-30.02,5.48Z"/>
        <path d="M1150.5,538.01c-1.82-2.38-4.31-4.4-7.36-6.18-9.17-5.28-23.53-8.81-45.75-13.19-18.05-3.54-33.29-8.07-45.79-13.82l-5.91-2.72.08,5.95c.06,4.99.1,9.38.1,13.45,0,12.94-.36,22.69-1.3,38.55l-.13,2.22,2.16,1.09c19.5,9.9,39.75,14.64,59.29,14.64,2.22,0,4.43-.06,6.63-.18h0c12.6-.7,22.63-3.49,29.83-8.27,7.21-4.75,11.33-11.71,11.67-19.51.02-.4.03-.79.03-1.18.02-3.94-1.09-7.68-3.54-10.85Z"/>
        <path d="M1255.45,649.68c-19.63,3.03-29.44,4.55-49.07,7.59l-2.66.41-.57,2.36c-6.41,26.43-10.3,39.33-19.7,65.22l-3.62,9.97,2.09,2.11,8.37-8.62c29.49-30.37,43.24-45.11,68.95-73.24l3.07-3.36-2.49-3.12-4.36.67Z"/>
        <path d="M1234.14,401.79l-.53-2.54-2.85-.36c-7.08-.9-7-.89-14.07-1.79l-2.76-.35-1.33,2.19c-9.61,15.87-14.98,24.66-25.09,40.88-18.54-12.1-41.21-21.11-61.02-23.05-2.57-.25-5.01-.37-7.33-.37-8.43,0-15.32,1.59-20.37,4.97-2.51,1.69-4.5,3.84-5.8,6.31-1.31,2.47-1.94,5.24-1.94,8.14,0,.83.05,1.67.15,2.53h0c.42,3.65,1.32,7.1,3.49,10.27,1.62,2.37,3.91,4.48,6.88,6.38,8.94,5.67,24.07,10.2,52.82,17.51,22.12,5.59,40.4,11.79,54.4,19.03,12.57,6.5,24.41,13.48,30.61,21.77.72.96,6.03-.26,6.03-1.25,0-36.45-3.9-74.52-11.3-110.28Z"/>
      </g>
    </g>
    <g>
      <polygon points="631.23 786.13 501.95 760.46 403.76 775.23 530.39 804.56 631.23 786.13"/>
      <polygon points="242.4 860.84 157.12 876.42 304.32 936.48 396.33 915.12 242.4 860.84"/>
      <polygon points="402.67 917.36 310.11 938.84 439.09 991.47 535.49 964.2 402.67 917.36"/>
      <polygon points="152.31 368.19 109.18 365.02 51.61 375.16 92.24 377.79 152.31 368.19"/>
      <polygon points="170.65 650.45 111.35 641.56 67.44 644.32 124.23 653.74 170.65 650.45"/>
      <polygon points="86.53 395.6 11.72 406.35 59.03 408.67 138.05 398.58 86.53 395.6"/>
      <polygon points="162.29 634.76 103.26 626.86 55.28 629.52 111.54 637.95 162.29 634.76"/>
      <polygon points="139.03 384.42 92.45 381.4 42.13 389.44 86.34 391.99 139.03 384.42"/>
      <polygon points="598.33 360.91 598.32 361.04 686.6 351.17 607.23 342.27 520.48 353.35 598.33 360.91"/>
      <polygon points="342.87 838.82 221.91 802.58 128.13 816.68 242.77 857.11 342.87 838.82"/>
      <polygon points="249.6 859.52 402.92 913.59 509.73 888.8 350.47 841.09 249.6 859.52"/>
      <polygon points="521.45 806.19 394.06 776.69 310.84 789.21 434.66 822.05 521.45 806.19"/>
      <polygon points="350.72 837.38 426.31 823.57 301.84 790.56 230.32 801.32 350.72 837.38"/>
      <polygon points="358.31 839.66 516.84 887.15 596.4 868.69 434.48 825.74 358.31 839.66"/>
      <polygon points="293.08 788.24 148.78 749.97 84.37 757.59 222.23 798.89 293.08 788.24"/>
      <polygon points="275.23 181.83 383.92 200.99 549.02 155.47 434.43 129.63 275.23 181.83"/>
      <polygon points="570.76 81.1 468.73 52.93 335.88 103.7 434.21 125.88 570.76 81.1"/>
      <polygon points="427.52 128.07 329.79 106.03 176.84 164.48 267.65 180.49 427.52 128.07"/>
      <polygon points="345.35 252.06 436.96 265.26 570.11 237.48 474.99 220.71 345.35 252.06"/>
      <polygon points="474.84 217.02 642.32 176.52 556.51 157.16 392.22 202.46 474.84 217.02"/>
      <polygon points="557.07 282.56 691.57 258.89 579.68 239.16 447.4 266.76 557.07 282.56"/>
      <polygon points="170.29 166.98 56.55 210.45 139.75 222.44 260.4 182.87 170.29 166.98"/>
      <polygon points="163.04 292.44 93.98 284.69 20.9 304.84 85.74 311.14 163.04 292.44"/>
      <polygon points="375.83 203.22 267.98 184.21 147.84 223.6 249.04 238.18 375.83 203.22"/>
      <polygon points="326.31 252.95 249.33 241.86 103.3 282.12 173.25 289.97 326.31 252.95"/>
      <polygon points="157.07 352.94 68.76 345.76 23.77 355.15 108.96 361.41 157.07 352.94"/>
      <polygon points="83.23 660.26 128.46 668.5 171 665.16 124.02 657.36 83.23 660.26"/>
      <polygon points="384.14 204.69 257.98 239.47 335.72 250.67 466.1 219.14 384.14 204.69"/>
      <polygon points="163.56 322.3 86.05 314.78 47.98 323.98 123.29 330.7 163.56 322.3"/>
      <polygon points="690.87 728.41 531.89 704.59 472.75 711.59 629.61 737.63 690.87 728.41"/>
      <polygon points="176.58 680.92 128.24 672.12 90.39 675.09 137.06 684.35 176.58 680.92"/>
      <polygon points="68.77 661.28 33.48 663.79 77.39 672.51 114.42 669.6 68.77 661.28"/>
      <polygon points="108.83 654.84 51.49 645.32 14.13 647.67 69.02 657.67 108.83 654.84"/>
      <polygon points="159.77 620.09 87.69 611.59 35 614.1 103.18 623.22 159.77 620.09"/>
      <polygon points="151.31 604.98 66.81 596.36 8.7 598.66 87.85 607.99 151.31 604.98"/>
      <polygon points="120.47 817.84 42.33 829.59 150.92 873.89 235.56 858.43 120.47 817.84"/>
      <polygon points="583.95 649.13 499.15 656.49 600.31 668.42 686.41 659.59 583.95 649.13"/>
      <polygon points="599.16 672.08 525.4 679.44 613.39 691.37 688.28 682.53 599.16 672.08"/>
    </g>
  </g>
</svg>