<?xml version="1.0" encoding="UTF-8"?>
<svg id="_レイヤー_1" data-name="レイヤー_1" xmlns="http://www.w3.org/2000/svg" version="1.1" viewBox="0 0 1720 1064">
  <!-- Generator: Adobe Illustrator 30.2.1, SVG Export Plug-In . SVG Version: 2.1.1 Build 1)  -->
  <defs>
    <style>
      .st0 {
        fill: none;
      }
    </style>
  </defs>
  <path class="st0" d="M1393.77,808.65l-6.22,4.91,1.16,3.69,170.04-40.68c-8.62,14.13-14.89,23.21-26.33,38.51-76.9,21.39-153.79,42.79-230.66,64.18l-1.71.48-.18.25c-27.31,7.52-41.57,11.46-69.44,19.14h-.03c-15.87,4.42-26.43,7.35-38.83,10.8l4.71-3.56,2.44-1.85-1.44-2.38c-27.11-44.54-53.06-89.55-79.69-134.36l-1.41-2.38-3.45.17q-.48.02-.98.04l-3.43.17-1.01,2.48c-27.99,68.43-62.81,131.54-107.33,194.86-38.45,10.7-60.22,16.76-95.64,26.62,4.64-6.32,8.36-11.58,13.93-19.6l9.78-14.13-17.11,9.33c-42.83,23.41-88.18,45.57-135.27,60.18-4.51,1.41-12.37,4.19-22.45,7.66-15.12,5.18-35.12,11.81-55.05,17.12-9.55,2.55-18.95,4.53-27.82,6.02-9.52,1.29-19.1,2.42-28.72,3.35-14.84.65-54.95-.13-92.27-.13h-7.38c10.76-2.57,21.16-5.68,31.12-9.46,50.87-19.29,91.51-53.32,124.01-95.07,48.73-62.62,79.31-142.75,98.03-218.09.76-3.1,1.46-6.19,2.19-9.29,17.79-16.36,37.26-31.08,58.38-43.27l5.34-2.59.25-2.38s.45-3.52,1.21-9.46c6.6-45.38,9.95-90.12,9.95-134.7,0-9.16-.18-18.32-.45-27.48-.18-5.58-.4-11.6-.71-17.98-.02-.51-.05-1.05-.08-1.58-1.59-31.35-5.27-71.32-12.77-113.22l-.13-.74c-1.51-8.25-3.12-16.59-4.94-24.95l-.55-2.74-54.45-6.7c-3.3-14.36-7.11-28.95-11.31-43.61-.15-.53-.3-1.07-.45-1.6-1.03-3.54-2.09-7.08-3.17-10.63-.71-2.34-1.41-4.69-2.17-7.03-.73-2.36-1.49-4.7-2.24-7.07-1.18-3.58-2.37-7.14-3.6-10.72-.48-1.45-.98-2.88-1.49-4.3-1.61-4.65-3.28-9.26-5.01-13.88-.2-.53-.4-1.09-.6-1.62-10.86-28.81-23.78-57.04-39.15-83.55-.15-.3-.33-.59-.48-.88-5.52-9.48-11.36-18.74-17.51-27.73-.28-.38-.53-.78-.81-1.18-1.79-2.57-3.6-5.12-5.44-7.66-.76-1.05-1.54-2.09-2.29-3.14-1.26-1.68-2.44-3.39-3.7-5.05-.58-.74-1.18-1.45-1.76-2.19-.5-.63-1.01-1.24-1.49-1.85-3.4-4.3-6.88-8.49-10.43-12.63-1.31-1.5-2.62-3.03-3.96-4.51-1.64-1.81-3.28-3.62-4.96-5.41-1.59-1.71-3.25-3.39-4.89-5.07-1.99-2.06-4.01-4.08-6.05-6.07-2.39-2.3-4.81-4.61-7.28-6.84-1.46-1.31-2.92-2.59-4.41-3.89-1.01-.89-2.02-1.81-3.05-2.7-1.11-.93-2.27-1.83-3.38-2.74-1.39-1.14-2.77-2.29-4.16-3.41-3.4-2.69-6.83-5.29-10.36-7.83-1.01-.72-2.04-1.41-3.07-2.13-2.8-1.96-5.62-3.87-8.49-5.71-1.41-.9-2.82-1.79-4.23-2.67-2.92-1.79-5.87-3.54-8.89-5.24-.86-.48-1.66-1.01-2.52-1.49-.35-.21-.73-.38-1.08-.57l-.33-.17c-3-1.64-6.05-3.2-9.12-4.7-.5-.25-.98-.48-1.49-.72-3.17-1.54-6.4-3.03-9.65-4.44l-.08-.04c-3.3-1.43-6.68-2.78-10.05-4.08-.23-.08-.45-.19-.68-.27-.43-.17-.86-.3-1.29-.46-2.92-1.09-5.87-2.13-8.84-3.12-.68-.21-1.34-.44-1.99-.65-6.07-1.96-12.25-3.73-18.59-5.28,10.73,0,22.07-.02,33.91-.02h.38c45.12,0,89.85,6.02,131.95,17.73,30.06,8.38,60.09,16.74,90.12,25.1,50.84,71.49,90.53,143.36,121.74,220.89l9.65-1.75c-16.35-69.97-38.95-137.86-75.69-203.64,29.91,8.34,48.27,13.45,80.83,22.51,61.07,55.78,118.06,112.82,171.76,172.65l1.99,2.23,3.43-.71c.53-.11.5-.1,1.03-.21l3.58-.74.05-2.82c.3-12.7.55-25.37.55-38.01,0-27.73-1.26-55.38-5.97-83.26,42.35,11.79,66.21,18.43,110.48,30.76,35.9,37.63,68.48,77.05,97.23,117.98l9.02-3.16c-18.9-35.73-38.95-68.73-62.26-102.57,72.99,20.32,145.96,40.64,218.95,60.98,9.42,12.57,14.89,20.36,22.12,31.65-41.98-10.34-66.39-16.38-111.61-27.54l-10.96-2.7,4.91,7.88c8.52,13.64,12.42,20.4,19.88,34.28l.91,1.69,2.32.51c11.24,2.48,21.04,4.65,30.16,6.67l1.54.32c25.37,5.62,45.55,10.07,76.57,16.93,7,13.14,10.93,21.1,16.25,33.31-37.79-6.97-59.39-10.95-99.77-18.4l-8.64-1.58,2.75,6.4c6.93,16.24,10,24.3,15.57,40.77l.76,2.3,3.07.46c45.58,6.84,68.93,10.34,113.48,17.01,4.76,14.23,7.23,22.78,10.51,36.43-8.24-.88-14.19-1.5-24.01-2.57l-6.83-.72,1.26,5.14c8.47,34.41,12.32,69.57,12.32,104.74,0,25.84-2.09,51.69-5.9,77.24l-.68,4.61,6.1-.46c31.54-2.36,49.06-3.66,77.55-5.79-77.63,69.47-157.77,137-240.97,202.78Z"/>
  <g>
    <g>
      <path d="M1719.44,601.54l-1.81-2.27c-.27-.34-.3-.38-.55-.69l-1.61-2.01-2.76.21-80.35-2.03c2.68-21.32,4.25-42.79,4.25-64.3,0-31.87-3.25-63.75-10.18-95.15l28.9-1.18.52.06-.02-.08h.07s-8.12-32.21-13.68-48.66l-.74-2.27-3.03-.45c-44.92-6.74-67.93-10.19-111.86-16.78-.62-1.78-1.19-3.47-1.76-5.1l96.07-7.09.57-.17h-.05l-.79-1.86-2.23-5.22c-6.88-16.08-10.95-24.53-19.54-40.54l-.89-1.65-2.28-.51c-22.72-5.03-39.55-8.75-56.64-12.52l56.69-5.82-.02-.19.07.02-.1-.17-4.74-7.6c-10.25-16.42-15.94-24.7-27.93-40.65l-.89-1.18-1.69-.47c-76.45-21.28-152.9-42.57-229.35-63.87l-11.72-3.25-.07-.13-.22.04h-.02l-10.83,1.52c-1.64-1.75-3.23-3.49-4.89-5.24l-.87-.9-1.42-.39c-47.15-13.14-70.71-19.71-117.89-32.82l-7.1-1.99-.02-.3-91.97,17.66c-20.78-20.27-42.04-40.33-63.81-60.21l-.84-.77-1.24-.34c-36.62-10.21-54.92-15.3-91.55-25.51l-10.78-2.98v-.02l-20.48,5.18c-3.97-5.8-4.47-6.47-8.59-12.27l-.89-1.24-1.74-.49c-30.19-8.41-60.39-16.82-90.58-25.22-7.87-2.2-15.87-4.11-23.91-5.91-31.06-9.46-86.8-15.76-150.44-15.76s-120.82,6.49-151.61,16.16c-19.71,5.12-40.22,11.84-61.6,20.33-8.57,3.21-12.84,4.8-21.4,8-113.89,42.53-227.79,85.06-341.7,127.58l-39.55,14.75-2.73,1.01v687.59l2.73,1.01c72.53,27.03,145.03,54.05,217.56,81.08,54.58,20.38,109.13,40.76,163.7,61.13,8.57,3.21,12.84,4.8,21.4,8,15.05,5.97,29.65,11.07,43.85,15.33,14.2,4.26,28.01,7.71,41.39,10.38h.02c33.84,7.13,84.25,11.65,140.56,11.65,33.02,0,64.01-1.56,90.83-4.28,1.49-.08,2.81-.17,3.87-.28,15.05-1.45,23.41-1.88,36.6-4.67,19.74-4.22,40.79-10.6,58.57-16.42,8.86-2.91,16.91-5.69,23.51-7.96,6.58-2.29,11.77-4.09,14.72-5.01,28.31-8.76,55.74-20.21,82.31-32.88l19.14,4.64-.03.04,12.56-3.49c43.4-12.09,65.1-18.11,108.53-30.2l1.74-.49.89-1.24c15.27-21.66,29.32-43.33,42.43-65.18l119.73,21.04.1.09,3.5-.96c22.52-6.27,34.07-9.5,56.88-15.84,14.03-3.85,24.53-6.76,35.06-9.65,10.5-2.91,21.03-5.8,35.06-9.67l1.69-.47.2-.24c75.78-21.09,151.53-42.17,227.31-63.27l1.69-.47.87-1.18c13.9-18.49,20.38-28.13,31.83-47.29l4.52-7.56-4.64-.24-97.03-8.86c59.12-48.5,116.7-97.93,172.94-148.43l2.26-2.03ZM10.34,439.69l20.93-1.97-20.93-.75v-3.7l48.05,1.71-.03.19,83.75-7.92-68.88-2.85-62.89,6.79v-3.75l37.84-4.07-37.84-1.56v-6.68l74.24-9.01-52.42-2.55-21.83,2.95v-3.77l1.34-.17-1.34-.08v-3.7l21.53,1.05,62.15-8.39-48.32-2.65-35.36,5.26v-3.79l16.78-2.48-16.78-.92v-3.72l35.03,1.91,71.01-10.55-102.07-6.32-3.97.69v-4.67l3.63.23,55.42-9.76-59.04-4.05v-3.72l74.22,5.09,52.19-9.2-90.55-6.81-35.85,7.32v-3.83l22.15-4.52-22.15-1.67v-3.72l35.46,2.67,46.83-9.57-78.04-6.4-4.25.99v-5.07l3.77.32,89.78-20.91-93.53-8.88v-3.73l104.93,9.95,179.34-41.76-122.51-14.9L10.37,277.09v-3.94l151.88-42.06-100.71-12.26-51.17,16.52v-4.02l42.11-13.61-42.11-5.12v-3.75l50.55,6.16,139.52-45.04-92.74-13.79c2.41-.9,4.82-1.8,7.23-2.7l93.53,13.93,187.61-60.56-103.27-19.67c2.26-.83,4.52-1.67,6.78-2.52l103.91,19.78,162.96-52.59-107.76-25.13c2.53-.73,5.04-1.45,7.55-2.12l107.19,25,74.34-23.98c1.46.53,2.95.99,4.39,1.54.5.19.97.41,1.46.6l-72.95,23.53,125.31,29.22,23.19-6.42c1.14.99,2.28,1.97,3.4,3l-18.87,5.22,32.05,7.47c1.59,1.65,3.18,3.3,4.74,4.99l-44.39-10.36-166.18,46.02,140.91,26.84,101.03-23.52c.77,1.11,1.54,2.21,2.31,3.34l-94.2,21.92,105.53,20.1,12.66-2.57c.62,1.14,1.24,2.29,1.86,3.45l-4.79.98,5.88,1.11c.72,1.41,1.44,2.83,2.16,4.24l-17.73-3.38-203.53,41.57,117.17,17.45,120.27-21.19c.5,1.16.97,2.36,1.47,3.53l-110.04,19.41,124.62,18.54c.87,2.44,1.66,4.9,2.51,7.34l-152.4,22.65,70.32,8.56,88.29-11.92c.37,1.2.72,2.4,1.07,3.6l-74.69,10.1,78.49,9.53,1.76-.21c.4,1.45.82,2.89,1.22,4.32l-2.98-.36-201.54,24.47,85.36,8.09,123.9-13.38c.3,1.22.57,2.44.87,3.66l-106.32,11.47,98.3,9.31,53.93-5.09,7.97,1.07.42,1.86-62.3,5.89h-.02l-249.59,23.57c-.55-1.2-1.09-2.38-1.66-3.57l28.6-2.7-31.11-2.35c-.67-1.3-1.37-2.59-2.04-3.89l53.53,4.04-.02.26,54.4-5.14-94.45-7.73-17.28,1.86c-1.44-2.48-2.95-4.94-4.54-7.38l21.75,1.78,107.24-11.58-84.22-7.98-52.69,6.4c-.87-1.14-1.74-2.29-2.63-3.43l37.96-4.6-45.54-4.32c-1.22-1.37-2.46-2.74-3.75-4.09l66.57,6.31,203.45-24.7-77.67-9.44-193.94,26.16c-.52-.53-1.09-1.05-1.61-1.58l-.45-1.9,181.36-24.47-69.6-8.48-129.21,19.22c-1.39-1.05-2.71-2.14-4.12-3.17l119.38-17.74-132.74-16.16-38.51,6.79c-2.41-.86-4.92-1.69-7.4-2.5l33.15-5.84-110.86-13.49-185.97,37.99,20.01,1.9v3.74l-32.5-3.08-93.91,19.18,96.14,7.88,30.27-5.33v3.79l-15.54,2.74,15.54,1.28v3.73l-29.97-2.46-48.84,8.6,78.81,5.95v3.72l-93.58-7.06-51.79,9.12,109.85,7.54,35.53-5.27v3.77l-18.15,2.7,18.15,1.24c0,1.24-.02,2.48-.02,3.72l-35.23-2.42-58.25,8.65,53.93,3.36,39.55-5.35v3.77l-20.46,2.76,20.46,1.26v3.72l-39.33-2.44-72.68,9.82,58.42,3.21,53.58-6.51v3.75l-32.28,3.92,32.28,1.76v3.72l-53.36-2.93-63.64,7.73,64.83,3.15,52.17-5.63v3.73l-28.28,3.06,28.28,1.39v3.7l-51.97-2.53-95.4,10.3,71.36,2.95,76-7.19v3.73l-235.09,22.2v-3.73ZM255.26,756.04c-.03-74.81-.05-149.62-.07-224.41.03-74.7.05-149.37.07-224.07l311.96,30.76c23.96,25.71,38.44,56.75,47.4,88.7,10.11,35.98,13.26,73.03,15.44,104.61-2.9,42.13-7.55,93.97-28.11,140.04-8.74,19.59-20.39,38.12-35.9,54.46l-310.79,29.9ZM557.76,734.38l-.27.24c-19.86,18.24-45.34,33.2-78.46,43.15-17.08,3.7-35.31,5.44-54.53,5.44-24.73,0-51.1-2.91-78.64-8.31-30.17-5.93-48.34-9.52-73.69-14.49l285.59-26.03ZM277.04,302.25c22.92-4.62,40.62-8.2,68.83-13.91,27.29-5.37,53.41-8.26,77.94-8.31,19.09.02,37.22,1.78,54.2,5.44,9.29,2.8,18.13,5.93,26.54,9.33,21.11,9.12,38.51,20.59,52.94,33.82.52.47.99.96,1.49,1.43l-281.94-27.79ZM603.3,1048.93l-66.15-22.78-62.05,14.83c-2.58-.64-5.16-1.31-7.77-2.03l63.17-15.09-158.16-54.5-63.96,12.54c-2.23-.84-4.47-1.67-6.73-2.51l63.61-12.46-180.54-62.2-58.99,9.1c-2.38-.9-4.77-1.78-7.18-2.68l58.6-9.05-133.19-45.89-33.59,4.28v-3.75l25.65-3.27-25.65-8.84v-4.07l34.26,11.82,94.63-12.03-128.89-38.38v-3.98l138.25,41.18,113.57-14.41-169.26-42.83-82.56,8.26v-3.73l71.98-7.21-72.01-18.2v-3.9l83.06,21,77.77-7.77-96.02-21.51-64.81,5.59v-3.73l52.79-4.56-52.79-11.82v-3.85l65.23,14.6,85.64-7.39-105-20.53-45.86,3.36v-3.72l32.03-2.35-32.03-6.27v-3.81l46.26,9.05,96.04-7.06-57.51-9.63-84.79,5.61v-3.72l68.9-4.56-54.1-9.08-14.8.9v-7.17l15.12,2.53,42.09-2.52-57.21-8.8v-1.97l-.07.02.22-3.73-.15.02v-.21l34.24-1.82-34.24-4.8v-3.75l53.73,7.53,52.22-2.78-69.52-8.8-36.43,1.71v-.06h.02l-.1-3.7,14.8-.69-14.72-1.86v-3.75l36.38,4.6,56.81-2.65-84.32-9.53-8.94.36-.12-3.72c0-.45.2-.92.2-1.39l9.09,1.03,62.07-2.5-71.09-7.08-.02-3.58.12-.02.1-3.7,40.94-1.37-40.67-3.51-.07-3.73,235.36,20.29-.1,3.72-30.94-2.67-80.37,3.23,86.88,8.65,24.36-1.14-.05,3.55,1.04.11-1.04.06v-.17h-.05l.1,3.75-24.53-2.44-71.29,3.32,72.4,8.18,23.09-1.22-.1,3.72-.7.04.55.06v3.73l-23.04-2.59-63.66,3.38,70.81,8.97,15.89-.96v6.72l-16.11-2.03-58.08,3.47,56.86,7.98,17.33-1.14v7.34l-17.58-2.46-53.11,3.51,58.55,9.01,12.17-.88v6.53l-12.41-1.9-49.24,3.6,61.65,10.34v3.79l-77.37-12.99-97.65,7.17,104.33,20.4,70.69-6.1v3.72l-57.46,4.97,57.46,11.24v3.81l-71.04-13.89-86.83,7.49,95.49,21.4,62.77-6.27,3.28.64c3.25.64,6.31,1.24,9.31,1.84l-63.84,6.38,175.45,39.3,100.76-12.8-39.73-7.77c5.34-.11,10.58-.36,15.77-.75l35.83,7,118.88-15.09-78.64-13.19c1.84-.94,3.72-1.88,5.51-2.85l85.98,14.41,60.96-7.75-126.75-19.5c1.39-1.03,2.73-2.1,4.1-3.15l136.12,20.94,67.39-8.56-187.39-26.26c1.91-1.88,3.8-3.79,5.61-5.72l59.96-5.99-49.39-6.25c.89-1.14,1.76-2.29,2.63-3.43l63.32,8.01,80.97-8.09-110.89-12.54-26.07,2.25c.84-1.3,1.66-2.63,2.48-3.94l4.89-.43-4.32-.49c.72-1.16,1.42-2.33,2.09-3.49l21.55,2.44,92.79-7.56-106.54-10.6,2.04-3.53-.22-.02,2.06-3.68,79.4-5.82-59.44-5.12-17.6,1.18.79-2.65.22.02,1.37-3.58,303.64,26.16-7.3,3.1-51.82-4.47v.04l-106.52,9.23,106.2,10.57,35.36-3.53-6.16,4.35-10.5,1.05,8.72.86-3.95,3.34-23.46-2.35-93.86,9.4,100.51,11.35c-.27,1.22-.6,2.44-.87,3.66l-117.07-13.25-81.99,8.22,192.53,24.36,1.61-.21c-.35,1.35-.7,2.68-1.07,4.04l-.55-.07-75.63,9.61,70.57,9.89c-.37,1.2-.74,2.4-1.12,3.6l-83.55-11.71-68.06,8.65,145.35,22.37c-.4,1.18-.79,2.38-1.19,3.58l-157.62-24.25-61.58,7.83,156.9,26.29,62.2-9.59c-.47,1.33-.92,2.67-1.37,4l-49.09,7.56,43.65,7.32c-.45,1.2-.94,2.36-1.39,3.57l-54.03-9.06-124.17,19.16,160.45,31.38c-.55,1.16-1.12,2.33-1.66,3.49l-169.71-33.18-106.87,16.48,196.85,44.1,73.2-14.36c-.75,1.44-1.51,2.85-2.26,4.28l-61.83,12.12,48.77,10.92c-.7,1.13-1.37,2.27-2.06,3.4l-55.89-12.52-97.83,19.16,126.56,32.02c-.87,1.09-1.74,2.18-2.61,3.25l-132.64-33.56-131.3,25.75,161.67,48.14,84.35-20.14c-1.64,1.71-3.28,3.4-4.97,5.07l-72.13,17.23,38.34,11.43c-1.32.94-2.68,1.84-4.02,2.78l-41.74-12.44-118.39,28.28,67.06,23.12c-2.61.49-5.24.92-7.9,1.33ZM1465.31,804.8l-6.13,4.84,1.14,3.64,167.57-40.09c-8.49,13.93-14.67,22.88-25.95,37.95-75.78,21.08-151.56,42.17-227.31,63.25l-1.69.47-.17.24c-26.92,7.41-40.97,11.3-68.43,18.86h-.02c-15.64,4.35-26.05,7.24-38.26,10.64l4.64-3.51,2.41-1.82-1.42-2.35c-26.72-43.9-52.29-88.25-78.54-132.41l-1.39-2.35-3.4.17q-.47.02-.97.04l-3.38.17-.99,2.44c-27.59,67.43-61.9,129.63-105.77,192.03-37.89,10.55-59.34,16.52-94.25,26.24,4.57-6.23,8.24-11.41,13.73-19.31l9.63-13.93-16.86,9.2c-42.21,23.07-86.9,44.91-133.31,59.31-4.44,1.39-12.19,4.13-22.12,7.54-14.9,5.1-34.61,11.64-54.25,16.87-9.41,2.51-18.67,4.47-27.41,5.93-9.39,1.28-18.82,2.38-28.31,3.3-14.62.64-54.15-.13-90.93-.13h-7.27c10.6-2.53,20.86-5.59,30.66-9.33,50.13-19.01,90.18-52.55,122.21-93.69,48.02-61.71,78.16-140.68,96.61-214.93.74-3.06,1.44-6.1,2.16-9.16,17.53-16.12,36.72-30.63,57.53-42.64l5.26-2.55.25-2.35s.45-3.47,1.19-9.33c6.51-44.72,9.81-88.81,9.81-132.74,0-9.03-.17-18.05-.45-27.08-.17-5.5-.4-11.43-.7-17.72-.02-.51-.05-1.03-.07-1.56-1.56-30.89-5.19-70.29-12.59-111.57l-.12-.73c-1.49-8.13-3.08-16.35-4.87-24.59l-.55-2.7-53.66-6.61c-3.25-14.15-7-28.53-11.15-42.98-.15-.53-.3-1.05-.45-1.58-1.02-3.49-2.06-6.98-3.13-10.47-.69-2.31-1.39-4.62-2.14-6.93-.72-2.33-1.46-4.64-2.21-6.96-1.17-3.53-2.33-7.04-3.55-10.57-.47-1.43-.97-2.83-1.46-4.24-1.59-4.58-3.23-9.12-4.94-13.68-.2-.53-.4-1.07-.6-1.6-10.7-28.4-23.44-56.21-38.59-82.33-.15-.3-.32-.58-.47-.86-5.44-9.35-11.2-18.47-17.26-27.33-.27-.38-.52-.77-.79-1.16-1.76-2.53-3.55-5.05-5.36-7.54-.74-1.03-1.51-2.06-2.26-3.1-1.24-1.65-2.41-3.34-3.65-4.97-.57-.73-1.17-1.43-1.74-2.16-.5-.62-.99-1.22-1.46-1.82-3.35-4.24-6.78-8.37-10.28-12.44-1.29-1.48-2.58-2.98-3.9-4.45-1.61-1.78-3.23-3.57-4.89-5.33-1.56-1.69-3.2-3.34-4.82-4.99-1.96-2.03-3.95-4.02-5.96-5.99-2.36-2.27-4.74-4.54-7.18-6.74-1.44-1.29-2.88-2.55-4.35-3.83-.99-.88-1.99-1.78-3-2.66-1.09-.92-2.23-1.8-3.33-2.7-1.37-1.13-2.73-2.25-4.1-3.36-3.35-2.65-6.73-5.22-10.2-7.71-.99-.71-2.01-1.39-3.03-2.1-2.76-1.93-5.54-3.81-8.37-5.63-1.39-.88-2.78-1.76-4.17-2.63-2.88-1.76-5.79-3.49-8.76-5.16-.84-.47-1.64-.99-2.48-1.46-.35-.21-.72-.38-1.07-.56l-.32-.17c-2.95-1.61-5.96-3.15-8.99-4.64-.5-.24-.97-.47-1.46-.71-3.13-1.52-6.31-2.98-9.51-4.37l-.07-.04c-3.25-1.41-6.58-2.74-9.91-4.02-.22-.08-.45-.19-.67-.26-.42-.17-.84-.3-1.27-.45-2.88-1.07-5.79-2.1-8.71-3.08-.67-.21-1.32-.43-1.96-.64-5.98-1.93-12.07-3.68-18.32-5.2,10.58,0,21.75-.02,33.42-.02h.37c44.47,0,88.54,5.93,130.03,17.47,29.62,8.26,59.22,16.5,88.82,24.74,50.11,70.45,89.21,141.28,119.98,217.69l9.51-1.73c-16.11-68.95-38.39-135.86-74.59-200.68,29.47,8.22,47.57,13.25,79.65,22.18,60.19,54.97,116.35,111.18,169.26,170.15l1.96,2.2,3.38-.69c.52-.11.5-.09,1.02-.21l3.53-.73.05-2.78c.3-12.52.55-25,.55-37.46,0-27.33-1.24-54.58-5.88-82.05,41.74,11.62,65.25,18.17,108.88,30.31,35.38,37.08,67.49,75.93,95.82,116.27l8.89-3.12c-18.62-35.21-38.39-67.73-61.35-101.08,71.93,20.03,143.84,40.05,215.77,60.09,9.29,12.39,14.67,20.06,21.8,31.19-41.37-10.19-65.43-16.14-109.99-27.14l-10.8-2.67,4.84,7.77c8.39,13.44,12.24,20.1,19.59,33.78l.89,1.67,2.29.51c11.07,2.44,20.73,4.58,29.72,6.57l1.51.32c25,5.54,44.89,9.93,75.46,16.68,6.9,12.95,10.78,20.79,16.02,32.82-37.24-6.87-58.52-10.79-98.33-18.13l-8.52-1.56,2.71,6.31c6.83,16.01,9.86,23.95,15.34,40.18l.74,2.27,3.03.45c44.92,6.74,67.93,10.19,111.83,16.76,4.69,14.02,7.13,22.45,10.35,35.9-8.12-.86-13.98-1.48-23.66-2.53l-6.73-.71,1.24,5.07c8.34,33.91,12.14,68.56,12.14,103.22,0,25.47-2.06,50.94-5.81,76.12l-.67,4.54,6.01-.45c31.09-2.33,48.34-3.6,76.43-5.71-76.5,68.46-155.48,135.02-237.47,199.84Z"/>
      <g>
        <path d="M1512.49,584.89c-7.09,11.75-19.78,20.39-34.42,30.09l-4.69,3.11,1.41,3.88,6.99-.52c1.11-.08,2.03-.15,2.91-.22v.03s6.04-.45,6.04-.45c8.46-.63,12.69-.95,21.15-1.58l3.91-.29.47-2.95c2.01-12.53,2.84-18.92,4.09-31.49l.24-2.42-5.26-1.71-2.84,4.53Z"/>
        <path d="M1053.19,466.68l-9.63-2.63.45,5.08v.02c1.96,20.58,2.89,41.23,2.89,61.89,0,40.22-3.51,80.49-9.7,120.38l-.61,3.92,5.21.21c28.32,1.14,53.25,8.7,72.85,21.18l6.67,4.25,1.33-6.52c2.18-10.71,3.29-16.66,4.9-26.56,12.18-.91,19.51-1.46,32.83-2.45l6.65-.5-2.63-4.64c-33.51-59.23-71.63-116.7-111.22-173.64Z"/>
        <path d="M1259.3,376.97l1.23,4.84,5.81-2.24c13.3-5.14,30.19-7.82,50.45-7.82,8.31,0,17.18.45,26.59,1.36l7.84.76-2.59-5.64c-18.99-41.39-41.87-81.75-68.24-120.79l-1.68-2.49-3.63.55c-.57.09-.49.07-1.06.16l-3.79.57-.15,2.92c-1.88,36.04-7.46,73-15.93,108.51l-.88,3.67,1.93.25c1.58,5.61,2.51,9.1,4.12,15.41Z"/>
        <path d="M1039.07,756.7c-6.01-2.63-13.23-4.1-21.54-4.1-3.59,0-7.38.27-11.39.83-15.22,2.12-28.75,7.41-40.66,14.61-17.86,10.81-32.19,25.89-43.79,41.54-11.59,15.65-20.44,31.89-27.11,45.07-4.19,8.34-8.7,23.56-8.73,38.02.02,8.39,1.5,16.52,5.98,22.96,2.25,3.21,5.32,6,9.38,7.97,4.05,1.97,9.01,3.04,14.63,3.03,6.16,0,13.14-1.23,21.15-3.8,25.9-8.33,51.07-22.63,72.23-39.7,21.15-17.08,38.3-36.94,47.91-56.57l-3.8-1.06,3.8,1.06c3.93-8.06,6.26-18.03,6.27-28.08-.02-11.08-2.81-22.28-9.99-31.04-3.59-4.37-8.34-8.12-14.35-10.74Z"/>
        <path d="M1174.84,351.22l19.14,2.46-4.96-6.74c-35.66-48.51-73.46-95.41-113.83-141.79l-2.21-2.54-3.72,1.14c-.66.2-.48.15-1.15.35l-3.9,1.19.97,3.1c16.65,52.99,27.73,104.76,34.47,158.87-15.65-1.67-25.34-2.71-42.71-4.56l-10.47-1.12,5.64,6.76c48.36,57.94,94.19,116.6,137.6,176.68l2.5,3.47,4.41-2.11.93-.45,2.31-1.11-.04-2.07c-1.15-65.19-9.34-127.6-24.99-191.53Z"/>
        <path d="M1352.82,655.24c-10.9,1.09-22.25,1.64-33.72,1.64-15.68,0-31.57-1.03-46.76-3.13l-4.97-.69-.76,3.77c-.59,2.94-.97,4.78-1.47,7.15-5.76.57-9.67.96-16.34,1.63l-7.05.7,3.38,4.73c30.27,42.29,60.11,84.77,90.44,127.08l1.48,2.07,3.11-.13c.67-.03.31-.01.98-.04l3.17-.14,1.13-2.24c16.74-33.26,30.47-68.7,40.12-103.52,4.61-16.03,6.65-24.22,10.09-40.37l1.21-5.7-7.36,1.54c-11.74,2.46-24,4.39-36.69,5.65Z"/>
        <path d="M1406.88,554.17c-2.23-2.46-5.26-4.55-8.99-6.38-11.2-5.44-28.76-9.09-55.91-13.62-22.06-3.65-40.68-8.33-55.96-14.26l-7.23-2.8.09,6.14c.08,5.15.12,9.68.12,13.89,0,13.36-.44,23.42-1.59,39.79l-.16,2.29,2.64,1.13c23.84,10.21,48.58,15.11,72.45,15.11,2.71,0,5.41-.06,8.1-.19h0c15.4-.73,27.65-3.6,36.45-8.54,8.82-4.91,13.85-12.09,14.27-20.14.02-.41.04-.81.04-1.22.02-4.07-1.33-7.93-4.32-11.2Z"/>
        <path d="M1535.14,669.43c-23.99,3.13-35.98,4.7-59.97,7.83l-3.25.42-.7,2.44c-7.84,27.28-12.58,40.59-24.08,67.32l-4.43,10.29,2.56,2.17,10.22-8.89c36.03-31.35,52.84-46.56,84.27-75.59l3.75-3.46-3.05-3.22-5.32.69Z"/>
        <path d="M1509.09,413.58l-.64-2.62-3.48-.37c-8.65-.93-8.55-.92-17.2-1.85l-3.37-.36-1.62,2.26c-11.75,16.38-18.3,25.46-30.66,42.2-22.66-12.48-50.36-21.79-74.57-23.79-3.14-.25-6.12-.38-8.96-.38-10.3,0-18.73,1.64-24.89,5.13-3.06,1.74-5.49,3.96-7.09,6.51-1.6,2.55-2.37,5.41-2.37,8.4,0,.86.06,1.73.18,2.61h0c.51,3.77,1.61,7.33,4.27,10.6,1.98,2.45,4.78,4.62,8.41,6.59,10.93,5.85,29.41,10.53,64.56,18.07,27.03,5.77,49.37,12.17,66.48,19.64,15.36,6.71,29.84,13.91,37.41,22.47.88.99,7.37-.27,7.37-1.29,0-37.62-4.76-76.91-13.81-113.82Z"/>
      </g>
    </g>
    <g>
      <polygon points="772.29 810.26 614.29 783.77 494.3 799.01 649.06 829.28 772.29 810.26"/>
      <polygon points="297.11 887.37 192.89 903.45 372.78 965.44 485.22 943.39 297.11 887.37"/>
      <polygon points="492.97 945.7 379.86 967.87 537.48 1022.19 655.29 994.05 492.97 945.7"/>
      <polygon points="187.01 378.91 134.31 375.64 63.95 386.09 113.6 388.81 187.01 378.91"/>
      <polygon points="209.42 670.22 136.95 661.05 83.29 663.9 152.69 673.63 209.42 670.22"/>
      <polygon points="106.62 407.2 15.2 418.29 73.02 420.68 169.58 410.27 106.62 407.2"/>
      <polygon points="199.21 654.04 127.07 645.88 68.43 648.62 137.19 657.33 199.21 654.04"/>
      <polygon points="170.78 395.66 113.86 392.54 52.36 400.84 106.38 403.47 170.78 395.66"/>
      <polygon points="732.09 371.39 732.07 371.53 839.95 361.34 742.96 352.15 636.95 363.59 732.09 371.39"/>
      <polygon points="419.9 864.64 272.07 827.24 157.46 841.8 297.55 883.52 419.9 864.64"/>
      <polygon points="305.91 886.01 493.28 941.82 623.8 916.23 429.17 866.99 305.91 886.01"/>
      <polygon points="638.13 830.96 482.45 800.52 380.74 813.44 532.07 847.33 638.13 830.96"/>
      <polygon points="429.48 863.16 521.86 848.91 369.74 814.83 282.34 825.93 429.48 863.16"/>
      <polygon points="438.76 865.51 632.5 914.53 729.73 895.47 531.85 851.14 438.76 865.51"/>
      <polygon points="359.05 812.44 182.69 772.94 103.99 780.81 272.46 823.43 359.05 812.44"/>
      <polygon points="337.23 186.56 470.06 206.34 671.82 159.36 531.78 132.68 337.23 186.56"/>
      <polygon points="698.39 82.6 573.71 53.53 411.35 105.93 531.51 128.82 698.39 82.6"/>
      <polygon points="523.34 131.08 403.91 108.33 216.98 168.66 327.97 185.18 523.34 131.08"/>
      <polygon points="422.93 259.05 534.88 272.67 697.59 244 581.35 226.69 422.93 259.05"/>
      <polygon points="581.17 222.89 785.84 181.08 680.97 161.1 480.21 207.85 581.17 222.89"/>
      <polygon points="681.66 290.53 846.04 266.1 709.29 245.74 547.64 274.22 681.66 290.53"/>
      <polygon points="208.98 171.24 69.98 216.1 171.66 228.47 319.11 187.64 208.98 171.24"/>
      <polygon points="200.13 300.72 115.73 292.73 26.41 313.52 105.65 320.02 200.13 300.72"/>
      <polygon points="460.17 208.64 328.37 189.02 181.55 229.68 305.22 244.73 460.17 208.64"/>
      <polygon points="399.65 259.96 305.57 248.52 127.12 290.07 212.61 298.17 399.65 259.96"/>
      <polygon points="192.82 363.17 84.91 355.76 29.92 365.45 134.03 371.91 192.82 363.17"/>
      <polygon points="102.59 680.35 157.87 688.85 209.86 685.4 152.44 677.35 102.59 680.35"/>
      <polygon points="470.32 210.15 316.15 246.05 411.16 257.61 570.49 225.07 470.32 210.15"/>
      <polygon points="200.75 331.54 106.04 323.78 59.51 333.28 151.54 340.21 200.75 331.54"/>
      <polygon points="845.17 750.69 650.89 726.1 578.62 733.33 770.31 760.2 845.17 750.69"/>
      <polygon points="216.67 701.68 157.59 692.59 111.34 695.65 168.38 705.22 216.67 701.68"/>
      <polygon points="84.92 681.41 41.79 683.99 95.45 692.99 140.71 689.99 84.92 681.41"/>
      <polygon points="133.88 674.75 63.8 664.93 18.14 667.35 85.22 677.67 133.88 674.75"/>
      <polygon points="196.12 638.89 108.04 630.12 43.65 632.71 126.96 642.13 196.12 638.89"/>
      <polygon points="185.79 623.3 82.52 614.4 11.51 616.78 108.23 626.41 185.79 623.3"/>
      <polygon points="148.1 842.98 52.6 855.11 185.31 900.84 288.75 884.88 148.1 842.98"/>
      <polygon points="714.51 668.86 610.87 676.46 734.5 688.78 839.73 679.66 714.51 668.86"/>
      <polygon points="733.1 692.55 642.95 700.15 750.48 712.46 842.01 703.34 733.1 692.55"/>
    </g>
  </g>
</svg>