<?xml version="1.0" encoding="UTF-8"?>
<svg id="_レイヤー_1" data-name="レイヤー_1" xmlns="http://www.w3.org/2000/svg" version="1.1" viewBox="0 0 1720 1064">
  <!-- Generator: Adobe Illustrator 30.2.1, SVG Export Plug-In . SVG Version: 2.1.1 Build 1)  -->
  <g>
    <path d="M1704.46,600.33l-1.78-2.23c-.27-.33-.29-.37-.54-.68l-1.59-1.97-2.71.2-78.95-1.99c2.63-20.95,4.17-42.04,4.17-63.18,0-31.31-3.2-62.64-10-93.49l28.4-1.16.51.06-.02-.07h.07s-7.98-31.64-13.44-47.82l-.73-2.23-2.98-.44c-44.13-6.62-66.75-10.01-109.91-16.49-.61-1.75-1.17-3.41-1.73-5.02l94.39-6.97.56-.17h-.05l-.78-1.83-2.2-5.13c-6.76-15.8-10.76-24.1-19.2-39.83l-.88-1.62-2.24-.5c-22.32-4.94-38.86-8.59-55.65-12.3l55.7-5.72-.02-.18.07.02-.1-.17-4.66-7.47c-10.08-16.14-15.66-24.27-27.45-39.94l-.88-1.16-1.66-.46c-75.12-20.91-150.23-41.82-225.35-62.75l-11.51-3.19-.07-.13-.22.04h-.02l-10.64,1.49c-1.61-1.72-3.17-3.43-4.81-5.14l-.85-.89-1.39-.39c-46.33-12.91-69.48-19.36-115.84-32.25l-6.98-1.95-.02-.3-90.37,17.35c-20.42-19.92-41.3-39.63-62.7-59.16l-.83-.76-1.22-.33c-35.99-10.03-53.97-15.03-89.95-25.06l-10.59-2.93v-.02l-20.13,5.09c-3.9-5.7-4.39-6.36-8.44-12.06l-.88-1.22-1.71-.48c-29.67-8.26-59.33-16.52-89-24.78-7.73-2.16-15.59-4.04-23.49-5.81-30.52-9.29-85.29-15.49-147.82-15.49s-118.71,6.38-148.97,15.88c-19.37,5.03-39.52,11.64-60.53,19.97-8.42,3.15-12.61,4.72-21.03,7.86-111.91,41.79-223.82,83.57-335.75,125.36l-38.86,14.49-2.68,1v675.61l2.68,1c71.26,26.55,142.5,53.11,213.76,79.66,53.62,20.03,107.22,40.05,160.85,60.06,8.42,3.15,12.61,4.72,21.03,7.86,14.78,5.86,29.13,10.88,43.08,15.07,13.95,4.19,27.52,7.58,40.67,10.2h.02c33.25,7.01,82.78,11.45,138.11,11.45,32.45,0,62.89-1.53,89.24-4.2,1.46-.07,2.76-.17,3.81-.28,14.78-1.42,23.01-1.84,35.96-4.59,19.4-4.15,40.08-10.42,57.55-16.14,8.71-2.86,16.61-5.59,23.1-7.82,6.46-2.25,11.56-4.02,14.47-4.92,27.81-8.61,54.77-19.86,80.88-32.31l18.81,4.55-.02.04,12.34-3.43c42.65-11.88,63.97-17.8,106.64-29.67l1.71-.48.88-1.22c15-21.28,28.81-42.58,41.69-64.04l117.64,20.67.1.09,3.44-.94c22.13-6.16,33.47-9.33,55.89-15.56,13.78-3.78,24.1-6.64,34.45-9.48,10.32-2.86,20.66-5.7,34.45-9.5l1.66-.46.2-.24c74.46-20.73,148.89-41.44,223.35-62.16l1.66-.46.85-1.16c13.66-18.16,20.03-27.64,31.28-46.47l4.44-7.43-4.56-.24-95.34-8.7c58.09-47.65,114.66-96.22,169.92-145.85l2.22-1.99ZM25.16,441.3l20.57-1.94-20.57-.74v-3.63l47.21,1.68-.02.18,82.29-7.78-67.68-2.8-61.8,6.68v-3.69l37.18-4-37.18-1.53v-6.56l72.95-8.85-51.5-2.51-21.44,2.89v-3.71l1.32-.17-1.32-.07v-3.63l21.15,1.03,61.07-8.24-47.48-2.6-34.74,5.16v-3.73l16.49-2.43-16.49-.9v-3.65l34.42,1.88,69.77-10.36-100.3-6.21-3.9.68v-4.59l3.56.22,54.45-9.59-58.02-3.98v-3.65l72.92,5,51.28-9.04-88.97-6.69-35.23,7.19v-3.76l21.76-4.44-21.76-1.64v-3.65l34.84,2.62,46.01-9.4-76.68-6.29-4.17.98v-4.98l3.71.31,88.22-20.54-91.9-8.72v-3.67l103.1,9.77,176.22-41.03-120.37-14.64-158.94,44.02v-3.87l149.23-41.33-98.95-12.04-50.28,16.23v-3.95l41.38-13.37-41.38-5.03v-3.69l49.67,6.05,137.09-44.26-91.12-13.55c2.37-.89,4.73-1.77,7.1-2.66l91.9,13.68,184.34-59.51-101.47-19.33c2.22-.81,4.44-1.64,6.66-2.47l102.1,19.44,160.12-51.67-105.88-24.69c2.49-.72,4.95-1.42,7.42-2.08l105.32,24.56,73.04-23.57c1.44.52,2.9.98,4.32,1.51.49.18.95.41,1.44.59l-71.68,23.12,123.13,28.71,22.79-6.31c1.12.98,2.24,1.94,3.34,2.95l-18.54,5.13,31.5,7.34c1.56,1.62,3.12,3.25,4.66,4.91l-43.62-10.18-163.29,45.22,138.45,26.37,99.27-23.11c.76,1.09,1.51,2.18,2.27,3.28l-92.56,21.54,103.69,19.75,12.44-2.53c.61,1.12,1.22,2.25,1.83,3.39l-4.71.96,5.78,1.09c.71,1.38,1.41,2.78,2.12,4.17l-17.42-3.32-199.98,40.85,115.13,17.15,118.18-20.82c.49,1.14.95,2.32,1.44,3.47l-108.13,19.07,122.45,18.22c.85,2.4,1.63,4.81,2.46,7.21l-149.75,22.26,69.09,8.41,86.75-11.71c.37,1.18.71,2.36,1.05,3.54l-73.39,9.92,77.12,9.37,1.73-.2c.39,1.42.8,2.84,1.2,4.24l-2.93-.35-198.03,24.05,83.88,7.95,121.74-13.15c.29,1.2.56,2.4.85,3.6l-104.47,11.27,96.59,9.15,52.99-5,7.83,1.05.41,1.83-61.21,5.79h-.02l-245.24,23.16c-.54-1.18-1.07-2.34-1.63-3.5l28.11-2.66-30.57-2.31c-.66-1.27-1.34-2.54-2-3.82l52.6,3.96-.02.26,53.45-5.05-92.8-7.6-16.98,1.83c-1.41-2.43-2.9-4.85-4.46-7.25l21.37,1.75,105.37-11.38-82.75-7.84-51.77,6.29c-.85-1.12-1.71-2.25-2.59-3.37l37.3-4.52-44.74-4.24c-1.2-1.35-2.42-2.69-3.68-4.02l65.41,6.2,199.91-24.27-76.31-9.28-190.56,25.71c-.51-.52-1.07-1.03-1.59-1.55l-.44-1.86,178.19-24.05-68.38-8.34-126.96,18.88c-1.37-1.03-2.66-2.1-4.05-3.12l117.3-17.43-130.42-15.88-37.84,6.68c-2.37-.85-4.83-1.66-7.27-2.45l32.57-5.74-108.93-13.26-182.73,37.32,19.66,1.86v3.67l-31.94-3.02-92.27,18.85,94.46,7.75,29.74-5.24v3.73l-15.27,2.69,15.27,1.25v3.67l-29.45-2.42-47.99,8.45,77.43,5.85v3.65l-91.95-6.93-50.89,8.96,107.93,7.41,34.91-5.18v3.71l-17.83,2.66,17.83,1.22c0,1.22-.02,2.43-.02,3.65l-34.62-2.38-57.23,8.5,52.99,3.3,38.86-5.26v3.71l-20.1,2.71,20.1,1.24v3.65l-38.64-2.4-71.41,9.64,57.41,3.15,52.65-6.4v3.69l-31.72,3.85,31.72,1.73v3.65l-52.43-2.88-62.53,7.6,63.7,3.1,51.26-5.53v3.67l-27.79,3.01,27.79,1.36v3.63l-51.06-2.49-93.73,10.12,70.12,2.9,74.68-7.06v3.67l-230.99,21.82v-3.67ZM265.81,752.13c-.02-73.5-.05-147.01-.07-220.49.02-73.39.05-146.77.07-220.16l306.52,30.22c23.54,25.26,37.77,55.76,46.57,87.15,9.93,35.35,13.03,71.75,15.17,102.79-2.85,41.4-7.42,92.33-27.62,137.6-8.59,19.25-20.03,37.45-35.28,53.51l-305.37,29.38ZM563.03,730.85l-.27.24c-19.52,17.92-44.55,32.62-77.09,42.39-16.78,3.63-34.69,5.35-53.58,5.35-24.3,0-50.21-2.86-77.26-8.17-29.64-5.83-47.5-9.35-72.41-14.24l280.61-25.58ZM287.2,306.26c22.52-4.54,39.91-8.06,67.63-13.66,26.81-5.27,52.48-8.11,76.58-8.17,18.76.02,36.57,1.75,53.26,5.35,9.12,2.75,17.81,5.83,26.08,9.17,20.74,8.96,37.84,20.23,52.01,33.23.51.46.98.94,1.46,1.4l-277.02-27.31ZM607.77,1039.92l-64.99-22.39-60.97,14.57c-2.54-.63-5.07-1.29-7.64-1.99l62.07-14.83-155.41-53.55-62.85,12.32c-2.2-.83-4.39-1.64-6.61-2.47l62.5-12.24-177.39-61.11-57.97,8.94c-2.34-.89-4.68-1.75-7.05-2.64l57.58-8.89-130.86-45.09-33.01,4.2v-3.69l25.2-3.21-25.2-8.69v-4l33.67,11.62,92.98-11.82-126.64-37.71v-3.91l135.84,40.46,111.59-14.16-166.31-42.08-81.12,8.11v-3.67l70.73-7.08-70.75-17.89v-3.84l81.61,20.63,76.41-7.63-94.34-21.13-63.68,5.5v-3.67l51.87-4.48-51.87-11.62v-3.78l64.09,14.35,84.14-7.27-103.17-20.17-45.06,3.3v-3.65l31.47-2.31-31.47-6.16v-3.74l45.45,8.89,94.37-6.93-56.5-9.46-83.31,5.51v-3.65l67.7-4.48-53.16-8.93-14.54.89v-7.04l14.86,2.49,41.35-2.47-56.21-8.65v-1.94l-.07.02.22-3.67-.15.02v-.2l33.64-1.79-33.64-4.72v-3.69l52.79,7.39,51.31-2.73-68.31-8.65-35.79,1.68v-.06h.02l-.1-3.63,14.54-.68-14.47-1.83v-3.69l35.74,4.52,55.82-2.6-82.85-9.37-8.78.35-.12-3.65c0-.44.19-.9.19-1.36l8.93,1.01,60.99-2.45-69.85-6.95-.02-3.52.12-.02.1-3.63,40.23-1.35-39.96-3.45-.07-3.67,231.26,19.93-.1,3.65-30.4-2.62-78.97,3.17,85.36,8.5,23.93-1.12-.05,3.49,1.02.11-1.02.06v-.17h-.05l.1,3.69-24.1-2.4-70.04,3.26,71.14,8.04,22.69-1.2-.1,3.65-.68.04.54.05v3.67l-22.64-2.54-62.55,3.32,69.58,8.81,15.61-.94v6.6l-15.83-1.99-57.06,3.41,55.87,7.84,17.03-1.12v7.21l-17.27-2.42-52.18,3.45,57.53,8.85,11.95-.87v6.42l-12.2-1.86-48.38,3.54,60.58,10.16v3.72l-76.02-12.76-95.95,7.04,102.52,20.04,69.46-5.99v3.65l-56.45,4.89,56.45,11.05v3.74l-69.8-13.65-85.32,7.36,93.83,21.02,61.68-6.16,3.22.63c3.2.63,6.2,1.22,9.15,1.81l-62.72,6.27,172.39,38.61,99-12.58-39.03-7.63c5.24-.11,10.39-.35,15.49-.74l35.2,6.88,116.81-14.83-77.26-12.96c1.81-.92,3.66-1.84,5.42-2.8l84.49,14.16,59.89-7.62-124.55-19.16c1.37-1.01,2.68-2.07,4.03-3.1l133.74,20.58,66.21-8.41-184.12-25.8c1.88-1.84,3.73-3.72,5.51-5.62l58.92-5.88-48.52-6.14c.88-1.12,1.73-2.25,2.59-3.37l62.21,7.87,79.56-7.95-108.96-12.32-25.62,2.21c.83-1.27,1.63-2.58,2.44-3.87l4.81-.42-4.24-.48c.71-1.14,1.39-2.29,2.05-3.43l21.18,2.4,91.17-7.43-104.69-10.42,2-3.47-.22-.02,2.03-3.61,78.02-5.72-58.41-5.03-17.3,1.16.78-2.6.22.02,1.34-3.52,298.35,25.71-7.17,3.04-50.92-4.39v.04l-104.66,9.07,104.34,10.38,34.74-3.47-6.05,4.28-10.32,1.03,8.56.85-3.88,3.28-23.05-2.31-92.22,9.24,98.76,11.16c-.27,1.2-.59,2.4-.85,3.6l-115.03-13.02-80.56,8.08,189.17,23.94,1.59-.2c-.34,1.33-.68,2.64-1.05,3.96l-.54-.07-74.31,9.44,69.34,9.72c-.37,1.18-.73,2.36-1.1,3.54l-82.09-11.51-66.87,8.5,142.82,21.98c-.39,1.16-.78,2.34-1.17,3.52l-154.87-23.83-60.5,7.69,154.16,25.84,61.11-9.42c-.46,1.31-.9,2.62-1.34,3.93l-48.23,7.43,42.89,7.19c-.44,1.18-.93,2.32-1.37,3.5l-53.09-8.91-122.01,18.83,157.65,30.83c-.54,1.14-1.1,2.29-1.63,3.43l-166.75-32.6-105,16.19,193.42,43.34,71.92-14.11c-.73,1.42-1.49,2.8-2.22,4.2l-60.75,11.91,47.92,10.73c-.68,1.11-1.34,2.23-2.02,3.34l-54.92-12.3-96.12,18.83,124.35,31.46c-.85,1.07-1.71,2.14-2.56,3.19l-130.33-32.97-129.01,25.3,158.85,47.3,82.88-19.79c-1.61,1.68-3.22,3.34-4.88,4.98l-70.87,16.93,37.67,11.23c-1.29.92-2.63,1.81-3.95,2.73l-41.01-12.23-116.32,27.79,65.9,22.72c-2.56.48-5.15.9-7.76,1.31ZM1454.76,800.04l-6.03,4.76,1.12,3.58,164.65-39.39c-8.34,13.68-14.42,22.48-25.49,37.29-74.46,20.71-148.92,41.44-223.35,62.14l-1.66.46-.17.24c-26.45,7.28-40.25,11.1-67.24,18.53h-.02c-15.37,4.28-25.59,7.12-37.59,10.46l4.56-3.45,2.37-1.79-1.39-2.31c-26.25-43.13-51.38-86.71-77.17-130.1l-1.37-2.31-3.34.17q-.46.02-.95.04l-3.32.17-.98,2.4c-27.11,66.26-60.82,127.37-103.93,188.68-37.23,10.36-58.31,16.23-92.61,25.78,4.49-6.12,8.1-11.21,13.49-18.98l9.47-13.68-16.57,9.04c-41.47,22.66-85.39,44.13-130.99,58.27-4.37,1.36-11.98,4.06-21.74,7.41-14.64,5.02-34.01,11.43-53.31,16.58-9.25,2.47-18.35,4.39-26.93,5.83-9.22,1.25-18.49,2.34-27.81,3.25-14.37.63-53.21-.13-89.34-.13h-7.15c10.42-2.49,20.49-5.5,30.13-9.16,49.26-18.68,88.61-51.63,120.08-92.06,47.18-60.63,76.8-138.23,94.93-211.18.73-3.01,1.42-5.99,2.12-9,17.22-15.84,36.08-30.1,56.53-41.9l5.17-2.51.24-2.31s.44-3.41,1.17-9.16c6.39-43.94,9.64-87.26,9.64-130.43,0-8.87-.17-17.74-.44-26.61-.17-5.4-.39-11.23-.68-17.41-.02-.5-.05-1.01-.07-1.53-1.54-30.35-5.1-69.06-12.37-109.63l-.12-.72c-1.46-7.98-3.03-16.06-4.78-24.16l-.54-2.66-52.72-6.49c-3.2-13.9-6.88-28.03-10.95-42.23-.15-.52-.29-1.03-.44-1.55-1-3.43-2.02-6.86-3.07-10.29-.68-2.27-1.37-4.54-2.1-6.8-.71-2.29-1.44-4.55-2.17-6.84-1.15-3.47-2.29-6.92-3.49-10.38-.46-1.4-.95-2.78-1.44-4.17-1.56-4.5-3.17-8.96-4.85-13.44-.2-.52-.39-1.05-.59-1.57-10.51-27.9-23.03-55.23-37.91-80.9-.15-.3-.32-.57-.46-.85-5.34-9.18-11-18.15-16.96-26.85-.27-.37-.51-.76-.78-1.14-1.73-2.49-3.49-4.96-5.27-7.41-.73-1.01-1.49-2.03-2.22-3.04-1.22-1.62-2.37-3.28-3.59-4.89-.56-.72-1.15-1.4-1.71-2.12-.49-.61-.98-1.2-1.44-1.79-3.29-4.17-6.66-8.22-10.1-12.23-1.27-1.46-2.54-2.93-3.83-4.37-1.59-1.75-3.17-3.5-4.81-5.24-1.54-1.66-3.15-3.28-4.73-4.91-1.93-1.99-3.88-3.95-5.86-5.88-2.32-2.23-4.66-4.46-7.05-6.62-1.41-1.27-2.83-2.51-4.27-3.76-.98-.87-1.95-1.75-2.95-2.62-1.07-.9-2.2-1.77-3.27-2.66-1.34-1.11-2.68-2.21-4.03-3.3-3.29-2.6-6.61-5.13-10.03-7.58-.98-.7-1.98-1.36-2.98-2.07-2.71-1.9-5.44-3.74-8.22-5.53-1.37-.87-2.73-1.73-4.1-2.58-2.83-1.73-5.68-3.43-8.61-5.07-.83-.46-1.61-.98-2.44-1.44-.34-.2-.71-.37-1.05-.55l-.32-.17c-2.9-1.59-5.86-3.1-8.83-4.55-.49-.24-.95-.46-1.44-.7-3.07-1.49-6.2-2.93-9.34-4.3l-.07-.04c-3.2-1.38-6.47-2.69-9.73-3.95-.22-.07-.44-.18-.66-.26-.42-.17-.83-.3-1.24-.44-2.83-1.05-5.68-2.07-8.56-3.02-.66-.2-1.29-.42-1.93-.63-5.88-1.9-11.86-3.61-18-5.11,10.39,0,21.37-.02,32.84-.02h.37c43.69,0,87,5.83,127.77,17.17,29.11,8.11,58.19,16.21,87.27,24.3,49.23,69.23,87.66,138.82,117.88,213.89l9.34-1.7c-15.83-67.75-37.72-133.49-73.29-197.19,28.96,8.08,46.74,13.02,78.26,21.8,59.14,54.01,114.32,109.24,166.31,167.18l1.93,2.16,3.32-.68c.51-.11.49-.09,1-.2l3.46-.72.05-2.73c.29-12.3.54-24.56.54-36.81,0-26.85-1.22-53.62-5.78-80.62,41.01,11.41,64.11,17.85,106.98,29.78,34.77,36.44,66.31,74.61,94.15,114.24l8.73-3.06c-18.3-34.59-37.72-66.55-60.28-99.32,70.68,19.68,141.33,39.35,212.01,59.05,9.12,12.17,14.42,19.71,21.42,30.65-40.64-10.01-64.29-15.86-108.08-26.66l-10.61-2.62,4.76,7.63c8.25,13.2,12.03,19.75,19.25,33.19l.88,1.64,2.25.5c10.88,2.4,20.37,4.5,29.2,6.45l1.49.31c24.57,5.44,44.11,9.75,74.14,16.39,6.78,12.72,10.59,20.43,15.74,32.25-36.6-6.75-57.5-10.6-96.61-17.81l-8.37-1.53,2.66,6.2c6.71,15.73,9.69,23.53,15.08,39.48l.73,2.23,2.98.44c44.13,6.62,66.75,10.01,109.88,16.47,4.61,13.78,7,22.06,10.17,35.28-7.98-.85-13.74-1.46-23.25-2.49l-6.61-.7,1.22,4.98c8.2,33.32,11.93,67.36,11.93,101.42,0,25.02-2.02,50.05-5.71,74.79l-.66,4.46,5.9-.44c30.55-2.29,47.5-3.54,75.09-5.61-75.17,67.27-152.77,132.66-233.33,196.35Z"/>
    <g>
      <path d="M1501.12,583.96c-6.96,11.55-19.43,20.03-33.82,29.56l-4.61,3.05,1.39,3.81,6.87-.51c1.09-.08,2-.15,2.86-.21v.03s5.94-.44,5.94-.44c8.31-.62,12.47-.93,20.78-1.55l3.84-.29.47-2.89c1.98-12.31,2.79-18.59,4.02-30.94l.24-2.38-5.17-1.68-2.79,4.45Z"/>
      <path d="M1049.82,467.82l-9.46-2.58.44,4.99v.02c1.93,20.22,2.84,40.51,2.84,60.81,0,39.52-3.45,79.09-9.53,118.28l-.6,3.85,5.12.21c27.83,1.12,52.32,8.55,71.58,20.81l6.55,4.18,1.31-6.4c2.15-10.52,3.23-16.37,4.81-26.09,11.97-.89,19.17-1.43,32.25-2.41l6.53-.49-2.58-4.56c-32.92-58.19-70.38-114.66-109.28-170.61Z"/>
      <path d="M1252.34,379.67l1.21,4.76,5.71-2.2c13.07-5.05,29.66-7.68,49.57-7.68,8.17,0,16.88.44,26.12,1.34l7.7.74-2.54-5.54c-18.65-40.67-41.14-80.33-67.05-118.68l-1.66-2.45-3.57.54c-.56.08-.49.07-1.05.16l-3.72.56-.15,2.87c-1.85,35.41-7.33,71.73-15.65,106.62l-.86,3.61,1.89.25c1.56,5.51,2.47,8.94,4.04,15.14Z"/>
      <path d="M1035.95,752.78c-5.9-2.59-13-4.03-21.16-4.02-3.53,0-7.26.27-11.19.81-14.96,2.08-28.25,7.28-39.95,14.36-17.55,10.62-31.63,25.44-43.03,40.82-11.39,15.38-20.09,31.34-26.63,44.29-4.12,8.19-8.55,23.15-8.57,37.36.02,8.25,1.47,16.24,5.87,22.56,2.21,3.15,5.23,5.9,9.21,7.83,3.98,1.93,8.85,2.99,14.38,2.98,6.06,0,12.91-1.21,20.78-3.74,25.45-8.18,50.18-22.23,70.97-39.01,20.78-16.78,37.63-36.3,47.07-55.59l-3.73-1.04,3.73,1.04c3.87-7.92,6.15-17.71,6.16-27.59-.02-10.89-2.76-21.89-9.82-30.5-3.53-4.29-8.19-7.98-14.1-10.56Z"/>
      <path d="M1169.35,354.37l18.81,2.42-4.87-6.63c-35.04-47.67-72.18-93.75-111.84-139.32l-2.17-2.5-3.66,1.12c-.65.2-.47.14-1.13.35l-3.84,1.17.96,3.04c16.36,52.07,27.24,102.93,33.87,156.1-15.38-1.64-24.9-2.66-41.97-4.48l-10.29-1.1,5.54,6.64c47.51,56.93,92.54,114.57,135.2,173.6l2.46,3.41,4.34-2.08.92-.44,2.27-1.09-.04-2.03c-1.13-64.05-9.18-125.38-24.56-188.19Z"/>
      <path d="M1344.22,653.09c-10.71,1.07-21.87,1.61-33.13,1.61-15.41,0-31.02-1.02-45.94-3.08l-4.88-.67-.74,3.71c-.58,2.89-.95,4.7-1.45,7.03-5.66.56-9.5.95-16.06,1.6l-6.93.69,3.33,4.65c29.75,41.55,59.07,83.29,88.87,124.87l1.45,2.03,3.05-.13c.66-.03.31-.01.96-.04l3.11-.13,1.11-2.2c16.45-32.68,29.94-67.51,39.42-101.72,4.53-15.75,6.54-23.79,9.92-39.67l1.19-5.6-7.23,1.51c-11.54,2.42-23.59,4.31-36.05,5.55Z"/>
      <path d="M1397.34,553.79c-2.19-2.41-5.17-4.47-8.83-6.26-11.01-5.35-28.26-8.93-54.93-13.38-21.68-3.59-39.97-8.19-54.99-14.01l-7.1-2.75.09,6.03c.08,5.06.12,9.51.12,13.64,0,13.13-.43,23.01-1.57,39.09l-.16,2.25,2.59,1.11c23.42,10.04,47.73,14.84,71.19,14.84,2.67,0,5.32-.06,7.96-.18h0c15.13-.71,27.17-3.54,35.82-8.39,8.66-4.82,13.61-11.88,14.02-19.79.02-.4.03-.8.03-1.2.02-4-1.31-7.79-4.25-11Z"/>
      <path d="M1523.37,667.04c-23.57,3.08-35.36,4.61-58.92,7.69l-3.2.42-.69,2.4c-7.7,26.81-12.37,39.88-23.66,66.14l-4.35,10.11,2.51,2.14,10.04-8.74c35.41-30.8,51.92-45.75,82.8-74.27l3.68-3.4-3-3.17-5.23.68Z"/>
      <path d="M1497.78,415.65l-.63-2.57-3.42-.37c-8.5-.91-8.4-.9-16.9-1.81l-3.31-.36-1.59,2.22c-11.54,16.1-17.99,25.01-30.13,41.46-22.27-12.27-49.49-21.41-73.27-23.37-3.08-.25-6.02-.37-8.8-.37-10.12,0-18.4,1.61-24.46,5.04-3.01,1.71-5.4,3.89-6.97,6.4-1.57,2.51-2.33,5.31-2.32,8.25,0,.84.06,1.7.18,2.56h0c.51,3.7,1.58,7.2,4.2,10.42,1.95,2.4,4.69,4.54,8.26,6.47,10.74,5.75,28.9,10.35,63.43,17.75,26.56,5.66,48.51,11.95,65.32,19.3,15.09,6.59,29.32,13.67,36.75,22.08.86.97,7.24-.26,7.24-1.27,0-36.97-4.68-75.57-13.57-111.84Z"/>
    </g>
  </g>
  <g>
    <polygon points="773.82 805.41 618.58 779.38 500.68 794.36 652.74 824.1 773.82 805.41"/>
    <polygon points="306.93 881.17 204.52 896.97 381.27 957.88 491.76 936.22 306.93 881.17"/>
    <polygon points="499.37 938.49 388.23 960.28 543.11 1013.64 658.86 985.99 499.37 938.49"/>
    <polygon points="198.74 381.58 146.96 378.36 77.82 388.64 126.61 391.31 198.74 381.58"/>
    <polygon points="220.76 667.81 149.56 658.8 96.83 661.6 165.02 671.16 220.76 667.81"/>
    <polygon points="119.75 409.37 29.92 420.28 86.74 422.63 181.62 412.39 119.75 409.37"/>
    <polygon points="210.73 651.91 139.85 643.9 82.23 646.59 149.79 655.14 210.73 651.91"/>
    <polygon points="182.8 398.03 126.86 394.97 66.44 403.13 119.52 405.72 182.8 398.03"/>
    <polygon points="734.32 374.19 734.3 374.33 840.3 364.32 745 355.29 640.84 366.52 734.32 374.19"/>
    <polygon points="427.57 858.84 282.32 822.09 169.71 836.39 307.36 877.39 427.57 858.84"/>
    <polygon points="315.57 879.84 499.68 934.67 627.92 909.53 436.68 861.15 315.57 879.84"/>
    <polygon points="642 825.75 489.03 795.84 389.1 808.53 537.79 841.83 642 825.75"/>
    <polygon points="436.99 857.39 527.76 843.38 378.29 809.9 292.41 820.81 436.99 857.39"/>
    <polygon points="446.1 859.69 636.47 907.86 732 889.13 537.57 845.58 446.1 859.69"/>
    <polygon points="367.78 807.55 194.5 768.74 117.17 776.47 282.71 818.35 367.78 807.55"/>
    <polygon points="346.34 192.59 476.86 212.02 675.1 165.86 537.5 139.65 346.34 192.59"/>
    <polygon points="701.21 90.43 578.7 61.87 419.17 113.35 537.24 135.84 701.21 90.43"/>
    <polygon points="529.21 138.07 411.86 115.71 228.19 174.99 337.25 191.23 529.21 138.07"/>
    <polygon points="430.55 263.81 540.55 277.19 700.43 249.02 586.21 232.01 430.55 263.81"/>
    <polygon points="586.03 228.28 787.14 187.2 684.09 167.57 486.83 213.5 586.03 228.28"/>
    <polygon points="684.77 294.74 846.28 270.74 711.92 250.73 553.09 278.72 684.77 294.74"/>
    <polygon points="220.33 177.53 83.76 221.61 183.66 233.77 328.54 193.64 220.33 177.53"/>
    <polygon points="211.63 304.75 128.7 296.9 40.95 317.33 118.8 323.72 211.63 304.75"/>
    <polygon points="467.15 214.28 337.64 195 193.38 234.95 314.89 249.73 467.15 214.28"/>
    <polygon points="407.68 264.71 315.24 253.46 139.89 294.29 223.89 302.25 407.68 264.71"/>
    <polygon points="204.45 366.11 98.42 358.83 44.39 368.35 146.68 374.7 204.45 366.11"/>
    <polygon points="115.79 677.76 170.11 686.12 221.19 682.73 164.77 674.82 115.79 677.76"/>
    <polygon points="477.12 215.77 325.63 251.04 418.98 262.4 575.53 230.42 477.12 215.77"/>
    <polygon points="212.25 335.04 119.18 327.41 73.46 336.75 163.89 343.56 212.25 335.04"/>
    <polygon points="845.43 746.88 654.54 722.72 583.52 729.82 771.87 756.22 845.43 746.88"/>
    <polygon points="227.88 698.72 169.84 689.79 124.39 692.8 180.43 702.2 227.88 698.72"/>
    <polygon points="98.43 678.8 56.05 681.34 108.78 690.18 153.25 687.24 98.43 678.8"/>
    <polygon points="146.54 672.27 77.68 662.61 32.82 664.99 98.73 675.13 146.54 672.27"/>
    <polygon points="207.7 637.03 121.15 628.41 57.88 630.95 139.74 640.21 207.7 637.03"/>
    <polygon points="197.54 621.71 96.08 612.96 26.3 615.3 121.34 624.76 197.54 621.71"/>
    <polygon points="160.51 837.56 66.68 849.48 197.07 894.41 298.71 878.73 160.51 837.56"/>
    <polygon points="717.05 666.48 615.22 673.95 736.69 686.04 840.08 677.08 717.05 666.48"/>
    <polygon points="735.31 689.75 646.74 697.22 752.39 709.32 842.33 700.35 735.31 689.75"/>
  </g>
</svg>