<?xml version="1.0" encoding="UTF-8"?>
<svg id="_レイヤー_1" data-name="レイヤー_1" xmlns="http://www.w3.org/2000/svg" version="1.1" viewBox="0 0 1784 1080">
  <!-- Generator: Adobe Illustrator 30.2.1, SVG Export Plug-In . SVG Version: 2.1.1 Build 1)  -->
  <defs>
    <style>
      .st0 {
        fill: #040000;
      }

      .st0, .st1 {
        stroke: #040000;
        stroke-miterlimit: 10;
      }

      .st1 {
        fill: #060001;
      }
    </style>
  </defs>
  <path class="st1" d="M1776.92,669.16l-.54-1.61h-92.64v-304.94h32.09v-76.84h-119.92v-64.8h110.02v-74.06h-110.02v-56.47h119.92V13.61h-221.6v168.01l-29.01-168.01h-113.89l-78.73,192.09h-1.46l-79.22-192.09h-88.45l-41.04,247.66V13.61h-175.85v349.01s66.01,0,66.01,0v324c-64.63,31.14-107.97,98.14-107.97,184.74,0,116.41,78.11,199.71,193.87,199.71,41.46,0,79.36-12.42,110.31-34.47v34.47h104.87v-246.21l1.09-.54,170.54,228.6-10.22,16.73.54,1.61h55.86l67.94.41v-.41h221.28v-93.17h-167.67l183.9-308.94ZM1539.42,667.56v-.05h-9.53c14.5-13.25,25.37-29.23,32.03-47.43v47.48h-22.5ZM1396.04,620.24c-27.08,0-56.3-7.76-84.78-22.62v-67.12c16.8,7.48,37.13,13.52,61.12,18.42,52.78,10.9,70.98,19.32,70.98,39.63s-15.77,31.7-47.32,31.7ZM1311.26,710.39v-12.45c29.81,7.92,61.15,12.45,89.03,12.45,13.68,0,26.74-.98,39.09-2.86v200.3l-1.09.54-148.15-197.97h21.13ZM1561.92,538.81c-15.17-32.47-52.71-52.18-110.07-65.19-65.52-14.86-75.22-19.81-75.22-38.14,0-16.84,15.77-28.23,43.68-28.23,26.08,0,55.81,10.9,78.25,28.23l45.19-72.86h18.17v176.19ZM1376.12,166.36l1.46.46,22.67,157.46c-34.96,1.48-65.1,9.34-88.99,22.4v-22.66h-.34l65.2-157.67ZM1139.92,362.62l27.22-194.41,1.46-.46,64.31,156.28h-16.76v230.08l-.99.51-126.92-191.99h51.69ZM1038.02,977.43c-59.76,0-95.99-47.08-95.99-104.51s36.23-109.17,95.99-109.17c53.17,0,94.58,39.84,94.58,107.62,0,54.84-39.53,106.07-94.58,106.07ZM1062.72,668.89v-194.72l125.17,193.34h-39.08v33.07c-24.95-17.16-54.29-28.03-86.08-31.69ZM1539.42,763.12l63-.08-63,103.11v-103.04Z"/>
  <path class="st0" d="M913.75,530.02C913.75,243.75,689.09,13.61,417.14,13.61H5.81v1058.07h411.33c271.94,0,496.6-230.14,496.6-516.41,0-4.22-.05-8.43-.14-12.63.09-4.2.14-8.41.14-12.63ZM490.15,797.34c-41.02,16.28-88.03,24.41-138.6,24.41h-96.1l-.06-279.11.06-278.53,96.1-.58c50.57,0,97.58,8.13,138.6,24.41,89.9,39.98,154.6,126.74,157.35,254.7-2.75,127.96-67.45,214.72-157.35,254.7Z"/>
</svg>