<?xml version="1.0" encoding="UTF-8"?>
<svg xmlns="http://www.w3.org/2000/svg" version="1.1" viewBox="0 0 3401.57 3401.57">
  <!-- Generator: Adobe Illustrator 30.2.1, SVG Export Plug-In . SVG Version: 2.1.1 Build 1)  -->
  <defs>
    <style>
      .st0 {
        fill: #eca513;
      }

      .st1 {
        fill: #fff;
      }

      .st2 {
        fill: #444;
      }

      .st3 {
        fill: none;
        stroke: #53ab4a;
        stroke-miterlimit: 10;
        stroke-width: .5px;
      }

      .st4 {
        fill: #0d62af;
      }

      .st5 {
        display: none;
      }

      .st6 {
        fill: #118a3b;
      }
    </style>
  </defs>
  <g id="_緑BASE" data-name="緑BASE">
    <rect class="st6" x="-.11" y="883.68" width="3409.83" height="1411.42"/>
  </g>
  <g id="_灰base" data-name="灰base">
    <rect class="st2" x="-.11" y="2295.1" width="3403.24" height="1108.03"/>
  </g>
  <g id="_青BASE" data-name="青BASE">
    <rect class="st4" x="-.11" y="-.11" width="3409.83" height="1123.01"/>
  </g>
  <g id="GOLDENRATIO" class="st5">
    <g>
      <g>
        <g>
          <rect class="st3" x="208.08" y="905.16" width="2984.31" height="1844.16"/>
          <rect class="st3" x="1700.42" y="1257.36" width="1843.69" height="1140.25" transform="translate(4449.74 -794.78) rotate(90)"/>
          <rect class="st3" x="2052.43" y="2044.89" width="1139.95" height="704.44" transform="translate(5244.82 4794.21) rotate(180)"/>
          <rect class="st3" x="1918.08" y="2179.33" width="704.26" height="435.55" transform="translate(-126.89 4667.32) rotate(-90)"/>
          <rect class="st3" x="2052.49" y="2045.07" width="435.44" height="269.08"/>
          <rect class="st3" x="2270.24" y="2096.42" width="269.01" height="166.37" transform="translate(4584.36 -225.13) rotate(90)"/>
          <rect class="st3" x="2321.58" y="2211.28" width="166.33" height="102.78" transform="translate(4809.49 4525.34) rotate(180)"/>
          <rect class="st3" x="2301.98" y="2230.89" width="102.76" height="63.55" transform="translate(90.69 4616.02) rotate(-90)"/>
          <rect class="st3" x="2321.59" y="2211.31" width="63.54" height="39.26"/>
          <rect class="st3" x="2353.35" y="2218.8" width="39.25" height="24.28" transform="translate(4603.91 -142.03) rotate(90)"/>
          <rect class="st3" x="2360.84" y="2235.56" width="24.27" height="15" transform="translate(4745.94 4486.12) rotate(180)"/>
          <rect class="st3" x="2357.97" y="2238.42" width="14.99" height="9.27" transform="translate(122.41 4608.53) rotate(-90)"/>
          <path class="st3" d="M2370.11,2250.56c8.29,0,15-6.71,15-15,0-13.4-10.86-24.25-24.27-24.25-21.69,0-39.24,17.56-39.24,39.26h0c0,35.08,28.42,63.47,63.54,63.47,56.81,0,102.78-45.97,102.78-102.77,0-91.85-74.4-166.17-166.35-166.17-148.91,0-269.4,120.29-269.4,268.96,0,240.59,194.91,435.26,435.77,435.26,389.38,0,704.46-314.99,704.46-704.26,0-629.8-509.99-1139.43-1140.25-1139.43-1019.28,0-1844.06,824.62-1844.06,1843.69"/>
        </g>
        <g>
          <rect class="st3" x="208.08" y="905.16" width="2984.31" height="1844.16" transform="translate(3400.46 3654.48) rotate(180)"/>
          <rect class="st3" x="-143.64" y="1257.36" width="1843.69" height="1140.25" transform="translate(2605.68 1049.28) rotate(90)"/>
          <rect class="st3" x="208.08" y="2044.89" width="1139.95" height="704.44"/>
          <rect class="st3" x="778.12" y="2179.33" width="704.26" height="435.55" transform="translate(-1266.85 3527.36) rotate(-90)"/>
          <rect class="st3" x="912.53" y="2045.07" width="435.44" height="269.08" transform="translate(2260.5 4359.22) rotate(180)"/>
          <rect class="st3" x="861.21" y="2096.42" width="269.01" height="166.37" transform="translate(3175.33 1183.89) rotate(90)"/>
          <rect class="st3" x="912.55" y="2211.28" width="166.33" height="102.78"/>
          <rect class="st3" x="995.73" y="2230.89" width="102.76" height="63.55" transform="translate(-1215.56 3309.78) rotate(-90)"/>
          <rect class="st3" x="1015.34" y="2211.31" width="63.54" height="39.26" transform="translate(2094.21 4461.88) rotate(180)"/>
          <rect class="st3" x="1007.87" y="2218.8" width="39.25" height="24.28" transform="translate(3258.43 1203.45) rotate(90)"/>
          <rect class="st3" x="1015.36" y="2235.56" width="24.27" height="15"/>
          <rect class="st3" x="1027.5" y="2238.42" width="14.99" height="9.27" transform="translate(-1208.07 3278.05) rotate(-90)"/>
          <path class="st3" d="M1030.36,2250.56c-8.29,0-15-6.71-15-15,0-13.4,10.86-24.25,24.27-24.25,21.69,0,39.24,17.56,39.24,39.26h0c0,35.08-28.42,63.47-63.54,63.47-56.81,0-102.78-45.97-102.78-102.77,0-91.85,74.4-166.17,166.35-166.17,148.91,0,269.4,120.29,269.4,268.96,0,240.59-194.91,435.26-435.77,435.26-389.38,0-704.46-314.99-704.46-704.26,0-629.8,509.99-1139.43,1140.25-1139.43,1019.28,0,1844.06,824.62,1844.06,1843.69"/>
        </g>
        <g>
          <rect class="st3" x="208.08" y="905.16" width="2984.31" height="1844.16"/>
          <rect class="st3" x="1700.42" y="1256.88" width="1843.69" height="1140.25" transform="translate(795.26 4449.26) rotate(-90)"/>
          <rect class="st3" x="2052.43" y="905.16" width="1139.95" height="704.44" transform="translate(5244.82 2514.76) rotate(-180)"/>
          <rect class="st3" x="1918.08" y="1039.6" width="704.26" height="435.55" transform="translate(3527.59 -1012.83) rotate(90)"/>
          <rect class="st3" x="2052.49" y="1340.33" width="435.44" height="269.08"/>
          <rect class="st3" x="2270.24" y="1391.69" width="269.01" height="166.37" transform="translate(929.87 3879.62) rotate(-90)"/>
          <rect class="st3" x="2321.58" y="1340.42" width="166.33" height="102.78" transform="translate(4809.49 2783.63) rotate(-180)"/>
          <rect class="st3" x="2301.98" y="1360.04" width="102.76" height="63.55" transform="translate(3745.17 -961.54) rotate(90)"/>
          <rect class="st3" x="2321.59" y="1403.91" width="63.54" height="39.26"/>
          <rect class="st3" x="2353.35" y="1411.4" width="39.25" height="24.28" transform="translate(949.43 3796.51) rotate(-90)"/>
          <rect class="st3" x="2360.84" y="1403.92" width="24.27" height="15" transform="translate(4745.94 2822.85) rotate(-180)"/>
          <rect class="st3" x="2357.97" y="1406.79" width="14.99" height="9.27" transform="translate(3776.89 -954.05) rotate(90)"/>
          <path class="st3" d="M2370.11,1403.93c8.29,0,15,6.71,15,15,0,13.4-10.86,24.25-24.27,24.25-21.69,0-39.24-17.56-39.24-39.26h0c0-35.08,28.42-63.47,63.54-63.47,56.81,0,102.78,45.97,102.78,102.77,0,91.85-74.4,166.17-166.35,166.17-148.91,0-269.4-120.29-269.4-268.96,0-240.59,194.91-435.26,435.77-435.26,389.38,0,704.46,314.99,704.46,704.26,0,629.8-509.99,1139.43-1140.25,1139.43-1019.28,0-1844.06-824.62-1844.06-1843.69"/>
        </g>
        <g>
          <rect class="st3" x="208.08" y="905.16" width="2984.31" height="1844.16" transform="translate(3400.46 3654.48) rotate(-180)"/>
          <rect class="st3" x="-143.64" y="1256.88" width="1843.69" height="1140.25" transform="translate(-1048.8 2605.2) rotate(-90)"/>
          <rect class="st3" x="208.08" y="905.16" width="1139.95" height="704.44"/>
          <rect class="st3" x="778.12" y="1039.6" width="704.26" height="435.55" transform="translate(2387.63 127.13) rotate(90)"/>
          <rect class="st3" x="912.53" y="1340.33" width="435.44" height="269.08" transform="translate(2260.5 2949.75) rotate(-180)"/>
          <rect class="st3" x="861.21" y="1391.69" width="269.01" height="166.37" transform="translate(-479.15 2470.59) rotate(-90)"/>
          <rect class="st3" x="912.55" y="1340.42" width="166.33" height="102.78"/>
          <rect class="st3" x="995.73" y="1360.04" width="102.76" height="63.55" transform="translate(2438.92 344.71) rotate(90)"/>
          <rect class="st3" x="1015.34" y="1403.91" width="63.54" height="39.26" transform="translate(2094.21 2847.08) rotate(-180)"/>
          <rect class="st3" x="1007.87" y="1411.4" width="39.25" height="24.28" transform="translate(-396.05 2451.03) rotate(-90)"/>
          <rect class="st3" x="1015.36" y="1403.92" width="24.27" height="15"/>
          <rect class="st3" x="1027.5" y="1406.79" width="14.99" height="9.27" transform="translate(2446.42 376.43) rotate(90)"/>
          <path class="st3" d="M1030.36,1403.93c-8.29,0-15,6.71-15,15,0,13.4,10.86,24.25,24.27,24.25,21.69,0,39.24-17.56,39.24-39.26h0c0-35.08-28.42-63.47-63.54-63.47-56.81,0-102.78,45.97-102.78,102.77,0,91.85,74.4,166.17,166.35,166.17,148.91,0,269.4-120.29,269.4-268.96,0-240.59-194.91-435.26-435.77-435.26-389.38,0-704.46,314.99-704.46,704.26,0,629.8,509.99,1139.43,1140.25,1139.43,1019.28,0,1844.06-824.62,1844.06-1843.69"/>
        </g>
      </g>
      <g>
        <g>
          <rect class="st3" x="995.5" y="1257.55" width="1844.16" height="1139.87" transform="translate(90.1 3745.06) rotate(-90)"/>
          <rect class="st3" x="1347.94" y="905.4" width="1139.57" height="704.62"/>
          <rect class="st3" x="1917.59" y="1039.91" width="704.44" height="435.41" transform="translate(3527.43 -1012.19) rotate(90)"/>
          <rect class="st3" x="2052.16" y="1340.68" width="435.3" height="269.15" transform="translate(4539.62 2950.52) rotate(180)"/>
          <rect class="st3" x="2000.84" y="1392.1" width="269.08" height="166.32" transform="translate(660.12 3610.64) rotate(-90)"/>
          <rect class="st3" x="2052.24" y="1340.72" width="166.28" height="102.81"/>
          <rect class="st3" x="2135.32" y="1360.36" width="102.78" height="63.53" transform="translate(3578.84 -794.59) rotate(90)"/>
          <rect class="st3" x="2154.96" y="1404.25" width="63.51" height="39.27" transform="translate(4373.43 2847.76) rotate(180)"/>
          <rect class="st3" x="2147.47" y="1411.74" width="39.26" height="24.27" transform="translate(743.23 3590.98) rotate(-90)"/>
          <rect class="st3" x="2154.97" y="1404.26" width="24.26" height="15"/>
          <rect class="st3" x="2167.1" y="1407.12" width="15" height="9.27" transform="translate(3586.35 -762.84) rotate(90)"/>
          <rect class="st3" x="2169.96" y="1413.53" width="9.27" height="5.73" transform="translate(4349.19 2832.79) rotate(180)"/>
          <path class="st3" d="M2179.23,1413.53c0-5.12-4.15-9.27-9.27-9.27-8.28,0-14.99,6.71-14.99,15,0,13.4,10.85,24.25,24.26,24.25h0c21.69,0,39.23-17.56,39.23-39.26,0-35.11-28.41-63.51-63.52-63.51-56.77,0-102.71,45.98-102.71,102.8,0,92.02,74.35,166.48,166.24,166.48,148.7,0,269.03-120.44,269.03-269.29,0-240.62-194.69-435.32-435.3-435.32-389.28,0-704.28,315.15-704.28,704.62,0,629.87,509.69,1139.54,1139.57,1139.54"/>
        </g>
        <g>
          <rect class="st3" x="995.5" y="1257.55" width="1844.16" height="1139.87" transform="translate(3745.06 -90.1) rotate(90)"/>
          <rect class="st3" x="1347.94" y="2044.94" width="1139.57" height="704.62"/>
          <rect class="st3" x="1917.59" y="2179.64" width="704.44" height="435.41" transform="translate(-127.54 4667.15) rotate(-90)"/>
          <rect class="st3" x="2052.16" y="2045.13" width="435.3" height="269.15" transform="translate(4539.62 4359.4) rotate(180)"/>
          <rect class="st3" x="2000.84" y="2096.54" width="269.08" height="166.32" transform="translate(4315.08 44.33) rotate(90)"/>
          <rect class="st3" x="2052.24" y="2211.43" width="166.28" height="102.81"/>
          <rect class="st3" x="2135.32" y="2231.07" width="102.78" height="63.53" transform="translate(-76.12 4449.55) rotate(-90)"/>
          <rect class="st3" x="2154.96" y="2211.45" width="63.51" height="39.27" transform="translate(4373.43 4462.16) rotate(180)"/>
          <rect class="st3" x="2147.47" y="2218.95" width="39.26" height="24.27" transform="translate(4398.19 63.98) rotate(90)"/>
          <rect class="st3" x="2154.97" y="2235.7" width="24.26" height="15"/>
          <rect class="st3" x="2167.1" y="2238.57" width="15" height="9.27" transform="translate(-68.61 4417.8) rotate(-90)"/>
          <rect class="st3" x="2169.96" y="2235.7" width="9.27" height="5.73" transform="translate(4349.19 4477.14) rotate(180)"/>
          <path class="st3" d="M2179.23,2241.43c0,5.12-4.15,9.27-9.27,9.27-8.28,0-14.99-6.71-14.99-15,0-13.4,10.85-24.25,24.26-24.25h0c21.69,0,39.23,17.56,39.23,39.26,0,35.11-28.41,63.51-63.52,63.51-56.77,0-102.71-45.98-102.71-102.8,0-92.02,74.35-166.48,166.24-166.48,148.7,0,269.03,120.44,269.03,269.29,0,240.62-194.69,435.32-435.3,435.32-389.28,0-704.28-315.15-704.28-704.62,0-629.87,509.69-1139.54,1139.57-1139.54"/>
        </g>
        <g>
          <rect class="st3" x="995.5" y="1257.55" width="1844.16" height="1139.87" transform="translate(90.1 3745.06) rotate(-90)"/>
          <rect class="st3" x="1347.65" y="905.4" width="1139.57" height="704.62" transform="translate(3834.86 2515.42) rotate(-180)"/>
          <rect class="st3" x="1213.13" y="1039.91" width="704.44" height="435.41" transform="translate(2822.97 -307.73) rotate(90)"/>
          <rect class="st3" x="1347.7" y="1340.68" width="435.3" height="269.15"/>
          <rect class="st3" x="1565.24" y="1392.1" width="269.08" height="166.32" transform="translate(224.52 3175.04) rotate(-90)"/>
          <rect class="st3" x="1616.65" y="1340.72" width="166.28" height="102.81" transform="translate(3399.57 2784.25) rotate(-180)"/>
          <rect class="st3" x="1597.05" y="1360.36" width="102.78" height="63.53" transform="translate(3040.57 -256.32) rotate(90)"/>
          <rect class="st3" x="1616.69" y="1404.25" width="63.51" height="39.27"/>
          <rect class="st3" x="1648.42" y="1411.74" width="39.26" height="24.27" transform="translate(244.18 3091.93) rotate(-90)"/>
          <rect class="st3" x="1655.93" y="1404.26" width="24.26" height="15" transform="translate(3336.11 2823.52) rotate(-180)"/>
          <rect class="st3" x="1653.07" y="1407.12" width="15" height="9.27" transform="translate(3072.32 -248.81) rotate(90)"/>
          <rect class="st3" x="1655.93" y="1413.53" width="9.27" height="5.73"/>
          <path class="st3" d="M1655.93,1413.53c0-5.12,4.15-9.27,9.27-9.27,8.28,0,14.99,6.71,14.99,15,0,13.4-10.85,24.25-24.26,24.25h0c-21.69,0-39.23-17.56-39.23-39.26,0-35.11,28.41-63.51,63.52-63.51,56.77,0,102.71,45.98,102.71,102.8,0,92.02-74.35,166.48-166.24,166.48-148.7,0-269.03-120.44-269.03-269.29,0-240.62,194.69-435.32,435.3-435.32,389.28,0,704.28,315.15,704.28,704.62,0,629.87-509.69,1139.54-1139.57,1139.54"/>
        </g>
        <g>
          <rect class="st3" x="995.5" y="1257.55" width="1844.16" height="1139.87" transform="translate(3745.06 -90.1) rotate(90)"/>
          <rect class="st3" x="1347.65" y="2044.94" width="1139.57" height="704.62" transform="translate(3834.86 4794.51) rotate(-180)"/>
          <rect class="st3" x="1213.13" y="2179.64" width="704.44" height="435.41" transform="translate(-831.99 3962.7) rotate(-90)"/>
          <rect class="st3" x="1347.7" y="2045.13" width="435.3" height="269.15"/>
          <rect class="st3" x="1565.24" y="2096.54" width="269.08" height="166.32" transform="translate(3879.48 479.92) rotate(90)"/>
          <rect class="st3" x="1616.65" y="2211.43" width="166.28" height="102.81" transform="translate(3399.57 4525.67) rotate(-180)"/>
          <rect class="st3" x="1597.05" y="2231.07" width="102.78" height="63.53" transform="translate(-614.39 3911.28) rotate(-90)"/>
          <rect class="st3" x="1616.69" y="2211.45" width="63.51" height="39.27"/>
          <rect class="st3" x="1648.42" y="2218.95" width="39.26" height="24.27" transform="translate(3899.14 563.03) rotate(90)"/>
          <rect class="st3" x="1655.93" y="2235.7" width="24.26" height="15" transform="translate(3336.11 4486.41) rotate(-180)"/>
          <rect class="st3" x="1653.07" y="2238.57" width="15" height="9.27" transform="translate(-582.64 3903.77) rotate(-90)"/>
          <rect class="st3" x="1655.93" y="2235.7" width="9.27" height="5.73"/>
          <path class="st3" d="M1655.93,2241.43c0,5.12,4.15,9.27,9.27,9.27,8.28,0,14.99-6.71,14.99-15,0-13.4-10.85-24.25-24.26-24.25h0c-21.69,0-39.23,17.56-39.23,39.26,0,35.11,28.41,63.51,63.52,63.51,56.77,0,102.71-45.98,102.71-102.8,0-92.02-74.35-166.48-166.24-166.48-148.7,0-269.03,120.44-269.03,269.29,0,240.62,194.69,435.32,435.3,435.32,389.28,0,704.28-315.15,704.28-704.62,0-629.87-509.69-1139.54-1139.57-1139.54"/>
        </g>
      </g>
      <g>
        <g>
          <rect class="st3" x="-144.08" y="1257.27" width="1844.17" height="1139.87" transform="translate(-1049.2 2605.21) rotate(-90)"/>
          <rect class="st3" x="208.37" y="905.24" width="1139.57" height="704.53"/>
          <rect class="st3" x="778.06" y="1039.71" width="704.35" height="435.41" transform="translate(2387.65 127.17) rotate(90)"/>
          <rect class="st3" x="912.59" y="1340.47" width="435.3" height="269.12" transform="translate(2260.48 2950.06) rotate(180)"/>
          <rect class="st3" x="861.28" y="1391.87" width="269.05" height="166.32" transform="translate(-479.22 2470.83) rotate(-90)"/>
          <rect class="st3" x="912.67" y="1340.5" width="166.28" height="102.8"/>
          <rect class="st3" x="995.76" y="1360.14" width="102.77" height="63.53" transform="translate(2439.05 344.76) rotate(90)"/>
          <rect class="st3" x="1015.39" y="1404.02" width="63.51" height="39.27" transform="translate(2094.29 2847.31) rotate(180)"/>
          <rect class="st3" x="1007.9" y="1411.52" width="39.26" height="24.27" transform="translate(-396.12 2451.19) rotate(-90)"/>
          <rect class="st3" x="1015.4" y="1404.03" width="24.26" height="15"/>
          <rect class="st3" x="1027.53" y="1406.9" width="15" height="9.27" transform="translate(2446.56 376.51) rotate(90)"/>
          <rect class="st3" x="1030.39" y="1413.3" width="9.27" height="5.73" transform="translate(2070.05 2832.34) rotate(180)"/>
          <path class="st3" d="M1039.66,1413.25c0-5.12-4.15-9.27-9.27-9.27-8.28,0-14.99,6.71-14.99,15,0,13.4,10.85,24.25,24.26,24.25h0c21.69,0,39.23-17.56,39.23-39.26,0-35.11-28.41-63.51-63.52-63.51-56.77,0-102.71,45.98-102.71,102.8,0,92.02,74.35,166.48,166.24,166.48,148.7,0,269.03-120.44,269.03-269.29,0-240.62-194.69-435.32-435.3-435.32-389.28,0-704.28,315.15-704.28,704.62,0,629.87,509.69,1139.55,1139.57,1139.55"/>
        </g>
        <g>
          <rect class="st3" x="-144.08" y="1257.27" width="1844.17" height="1139.87" transform="translate(2605.21 1049.2) rotate(90)"/>
          <rect class="st3" x="208.37" y="2044.64" width="1139.57" height="704.53"/>
          <rect class="st3" x="778.06" y="2179.29" width="704.35" height="435.41" transform="translate(-1266.76 3527.24) rotate(-90)"/>
          <rect class="st3" x="912.59" y="2044.82" width="435.3" height="269.12" transform="translate(2260.48 4358.76) rotate(180)"/>
          <rect class="st3" x="861.28" y="2096.22" width="269.05" height="166.32" transform="translate(3175.19 1183.58) rotate(90)"/>
          <rect class="st3" x="912.67" y="2211.11" width="166.28" height="102.8"/>
          <rect class="st3" x="995.76" y="2230.74" width="102.77" height="63.53" transform="translate(-1215.36 3309.65) rotate(-90)"/>
          <rect class="st3" x="1015.39" y="2211.12" width="63.51" height="39.27" transform="translate(2094.29 4461.51) rotate(180)"/>
          <rect class="st3" x="1007.9" y="2218.62" width="39.26" height="24.27" transform="translate(3258.29 1203.22) rotate(90)"/>
          <rect class="st3" x="1015.4" y="2235.38" width="24.26" height="15"/>
          <rect class="st3" x="1027.53" y="2238.24" width="15" height="9.27" transform="translate(-1207.85 3277.9) rotate(-90)"/>
          <rect class="st3" x="1030.39" y="2235.38" width="9.27" height="5.73" transform="translate(2070.05 4476.48) rotate(180)"/>
          <path class="st3" d="M1039.66,2241.16c0,5.12-4.15,9.27-9.27,9.27-8.28,0-14.99-6.71-14.99-15,0-13.4,10.85-24.25,24.26-24.25h0c21.69,0,39.23,17.56,39.23,39.26,0,35.11-28.41,63.51-63.52,63.51-56.77,0-102.71-45.98-102.71-102.8,0-92.02,74.35-166.48,166.24-166.48,148.7,0,269.03,120.44,269.03,269.29,0,240.62-194.69,435.32-435.3,435.32-389.28,0-704.28-315.15-704.28-704.62,0-629.87,509.69-1139.55,1139.57-1139.55"/>
        </g>
        <g>
          <rect class="st3" x="-144.08" y="1257.27" width="1844.17" height="1139.87" transform="translate(-1049.2 2605.21) rotate(-90)"/>
          <rect class="st3" x="208.08" y="905.24" width="1139.57" height="704.53" transform="translate(1555.72 2515.01) rotate(-180)"/>
          <rect class="st3" x="73.6" y="1039.71" width="704.35" height="435.41" transform="translate(1683.19 831.63) rotate(90)"/>
          <rect class="st3" x="208.13" y="1340.47" width="435.3" height="269.12"/>
          <rect class="st3" x="425.69" y="1391.87" width="269.05" height="166.32" transform="translate(-914.82 2035.24) rotate(-90)"/>
          <rect class="st3" x="477.07" y="1340.5" width="166.28" height="102.8" transform="translate(1120.42 2783.8) rotate(-180)"/>
          <rect class="st3" x="457.49" y="1360.14" width="102.77" height="63.53" transform="translate(1900.78 883.03) rotate(90)"/>
          <rect class="st3" x="477.12" y="1404.02" width="63.51" height="39.27"/>
          <rect class="st3" x="508.86" y="1411.52" width="39.26" height="24.27" transform="translate(-895.17 1952.14) rotate(-90)"/>
          <rect class="st3" x="516.35" y="1404.03" width="24.26" height="15" transform="translate(1056.97 2823.07) rotate(-180)"/>
          <rect class="st3" x="513.5" y="1406.9" width="15" height="9.27" transform="translate(1932.53 890.54) rotate(90)"/>
          <rect class="st3" x="516.36" y="1413.3" width="9.27" height="5.73"/>
          <path class="st3" d="M516.36,1413.3c0-5.12,4.15-9.27,9.27-9.27,8.28,0,14.99,6.71,14.99,15,0,13.4-10.85,24.25-24.26,24.25h0c-21.69,0-39.23-17.56-39.23-39.26,0-35.1,28.41-63.5,63.52-63.5,56.77,0,102.71,45.97,102.71,102.79,0,92.01-74.35,166.46-166.24,166.46-148.7,0-269.03-120.43-269.03-269.25,0-240.59,194.69-435.27,435.3-435.27,389.28,0,704.28,315.11,704.28,704.53,0,629.79-509.69,1139.4-1139.57,1139.4"/>
        </g>
        <g>
          <rect class="st3" x="-144.08" y="1257.27" width="1844.17" height="1139.87" transform="translate(2605.21 1049.2) rotate(90)"/>
          <rect class="st3" x="208.08" y="2044.64" width="1139.57" height="704.53" transform="translate(1555.72 4793.81) rotate(-180)"/>
          <rect class="st3" x="73.6" y="2179.29" width="704.35" height="435.41" transform="translate(-1971.22 2822.78) rotate(-90)"/>
          <rect class="st3" x="208.13" y="2044.82" width="435.3" height="269.12"/>
          <rect class="st3" x="425.69" y="2096.22" width="269.05" height="166.32" transform="translate(2739.59 1619.17) rotate(90)"/>
          <rect class="st3" x="477.07" y="2211.11" width="166.28" height="102.8" transform="translate(1120.42 4525.01) rotate(-180)"/>
          <rect class="st3" x="457.49" y="2230.74" width="102.77" height="63.53" transform="translate(-1753.63 2771.38) rotate(-90)"/>
          <rect class="st3" x="477.12" y="2211.12" width="63.51" height="39.27"/>
          <rect class="st3" x="508.86" y="2218.62" width="39.26" height="24.27" transform="translate(2759.24 1702.27) rotate(90)"/>
          <rect class="st3" x="516.35" y="2235.38" width="24.26" height="15" transform="translate(1056.97 4485.75) rotate(-180)"/>
          <rect class="st3" x="513.5" y="2238.24" width="15" height="9.27" transform="translate(-1721.88 2763.87) rotate(-90)"/>
          <rect class="st3" x="516.36" y="2235.38" width="9.27" height="5.73"/>
          <path class="st3" d="M516.36,2241.1c0,5.12,4.15,9.27,9.27,9.27,8.28,0,14.99-6.71,14.99-15,0-13.4-10.85-24.25-24.26-24.25h0c-21.69,0-39.23,17.56-39.23,39.26,0,35.1,28.41,63.5,63.52,63.5,56.77,0,102.71-45.97,102.71-102.79,0-92.01-74.35-166.46-166.24-166.46-148.7,0-269.03,120.43-269.03,269.25,0,240.59,194.69,435.27,435.3,435.27,389.28,0,704.28-315.11,704.28-704.53,0-629.79-509.69-1139.4-1139.57-1139.4"/>
        </g>
      </g>
    </g>
  </g>
  <g id="_空想滑走路" data-name="空想滑走路">
    <path class="st1" d="M1308.43,1654.99v-283.3l-88.07,90.63v87.07h0v11.17h0v94.39h22.42v.04h65.65ZM1550.13,1547.62l-105.5-68.09v113.79l105.5,68.1v-113.79ZM1209.02,1465.93h-56.75v87.59h56.75v-87.59ZM1300.51,1363.69h-148.23v91.07h59.75l88.49-91.07ZM1883.08,1359.13h-153.37v84.3h60.42l92.95-84.3ZM1596.61,1429.11l-138.2-88.39v112.79l138.2,89.55v-113.94ZM1787.6,1520.85h15.7v23.11h88.07v-89.36h-173v-95.47h-99.64v184.84h168.87v-23.11ZM1891.37,1443.44v-76.64l-84.5,76.64h84.5ZM993.96,1687.77l4.65,5.97h42.92v-89.8l-39.55-52.39-86.8,22.26,78.78,113.96ZM965.98,1667.47l-54.7,70.18v32.82h86.97v-56.66l-30.35-43.9-1.91-2.44ZM1041.53,1417.63h-31.95v96.05h31.95s0-96.05,0-96.05ZM1308.43,1666.16h-255.56v94.43h255.56v-94.43ZM1140.94,1654.99v-90.31h0v-11.17h0v-87.59h0v-11.17h0v-91.07h-88.07v291.3h88.07ZM1087.83,1896.58h90.96l-57.98-114.95h-90.87l52.97,105.02-.06.03,4.98,9.9ZM1209.02,1654.99v-90.31h-56.75v90.29l28.37.02h28.37ZM2762.78,1885.68v-239.38h-55.3v267.15l55.3-27.77ZM2824.29,1526.5h39.35v-6.09h0s0-.02,0-.02h0s0,0,0,0l45.41-65.93v-82.7l-84.76,91.44v63.31ZM2860.01,1640.33h-85.86v5.97h-.03v233.69l83.45-41.9v-96.65h0l68-86.81v-.73h-17.44l-44.57,64.31v-77.87h-3.56ZM2901.17,1363.69h-104.75v91.5h19.93l84.82-91.5ZM2909.05,1474.34l-34.07,49.47v130.08h-.07v28.55l31.12-45.02,29.91-43.38h0s130.25-189.03,130.25-189.03l.04.02,39.22-57.3h-109.18l-87.2,126.78v-.18ZM3043.03,1515.34l-13.62,17.28,58.93,74.56,67.18-85.27-106.32-6.21-6.16-.36ZM3159.73,1422.74l-98.1,82.5,98.1,5.73v-88.23ZM2785.08,1363.69h-85.31v162.81h85.31v-162.81ZM3007.62,1509.89h31.01l6.67-5.61,105.74-88.92h-78.29l-65.14,94.53ZM998.24,1347.74h-86.97v215.52l86.97-22.3v-193.22ZM2561.64,1582.19h-493.02v96.06h493.02v-96.06ZM2504.89,1812.71v-96.06h-130.6v96.05h130.6ZM2259.6,1425.69h-148.55v96.06h148.55v-96.06ZM2519.22,1425.69h-148.45v96.06h148.45s0-96.06,0-96.06ZM2359.44,1530.11h0v-111.7h0v-70.97s-88.62,0-88.62,0v70.97h.11v111.7h-.11v40.86h88.62v-40.86ZM2274.13,1689.12v143.87l55.37,85.19h33.24v-105.47h.21v-96.05h-.21v-27.54h-88.61ZM2863.48,1548.57h.16v-10.9h-163.87v91.5h163.71v-80.59ZM432.66,1531.44v-27.09h-67.16s0,0,0,0h-22l-108.18,217.82h0l-8.15,16.39h27.56v-27.46h88.65l89.29-179.66ZM2233.34,1781.33h.03s27.8-89.74,27.8-89.74h-94.07l-107.13,345.24h94.08l36.05-116.17-.14-.03,43.36-139.3ZM2260.44,1832.64l.16-.1-20.31-31.74-35.65,114.51,68.4,107.06,46.54-98.75-59.13-90.98ZM899.93,1417.63h-79.57v96.06h79.57v-96.06ZM1729.71,1926.97h50.68v-91.44h-50.68v91.44ZM1729.71,1824.35h50.68v-88.73h-50.68v88.73ZM1776.11,1724.45l72.7-75.27h-214.6v-11.17h225.39l80.03-82.87h-377.84l-.31-.2v193.97h69.79v.29h.14v287.93h86.97v-312.67s57.74,0,57.74,0ZM2362.74,1929.35h-33.38l-46.35,98.36h288.55v-98.33h-208.81v-.02ZM2857.57,1850.63l-150.09,75.36h0s-.23.12-.23.12l-27.27,13.69-.04-.08v105.44l214-107.06v-60.32l-36.35,46.52v-73.68ZM1550.13,1716.2h-28.52l-87.44,320.93h92.59l76.03-277.05h-52.65v-43.88ZM2992.24,1934.98h-86.97v93.03h241.24v-93.02h-154.27ZM3188.29,1752.39l-88.22-112.37-.1.07-77.75-98.37-.04.05-19.61-24.58-15.47,22.45.15.1-37.11,53.54-.77,1.12.93,1.18h.02s2.1,2.68,2.1,2.68l15.85,20.13-.11.14,72.02,92.76-.04.03,10.58,13.45h107.12v136.35l34.39,43.42v-147.14l-3.95-5.03ZM3060.1,1923.82h86.42v-179.61l-86.42,93.69v85.92ZM2992.24,1735.95h-86.97v187.86h86.97v-187.86ZM3018.01,1701.11l-57-73.42-35.43,45.24h0s-54.98,70.19-54.98,70.19h0l-1.68,2.15v99.6l.03.05h-.03v.24h0v46.29l25.02-31.95v-134.72h105.47l18.61-23.67ZM3052.32,1829.72l86.49-93.78h-135.23v93.78h48.74ZM1791.73,2037.13h89.17v-287.93h68.32v-187.79l-157.49,163.08v312.64ZM699.59,1616.67h-157.6l-89.74,94.33h247.35v-94.33ZM694.08,1397.12h-.17l.17.16v-.16ZM533.75,1609v-104.65h-89.75v4.28l.03-.06v194.74l89.72-94.3ZM604.36,1501.38v91.31h89.72v-187.31l-89.72,96ZM911.27,1722.6l49.13-63.53-56.67-81.98-83.92,106.93v155.67l91.46-117.17v.08ZM647.25,1818.33v-96.06h-381.19v16.29h0v79.77h105.69v-.02h34.75s99.56,0,99.56,0h0s62.82,0,62.82,0v.02h78.36ZM500.69,1921.55v-92.06h-88.62v92.06h88.62ZM686.39,1397.12h-82.13v.06h-217.04v-.07h-65.8v96.06h275.2l89.77-96.05ZM1042.32,1929.85v-98.59l-25.03-49.63h-65.79v45.48h-.38v105.9l.38-.74v91.62l90.82-94.04ZM1238.66,2014.79l-.2.1-39.91-79.14h-146.28l-93.5,96.82h294.01v-17.42h-14.12v-.36ZM806.49,2014.33h103.29l30-59.02v-128.2h-38.11l-95.18,187.22ZM320,1526.11h-9.91v-20.85h0v-108.14h-89.73v195.58h66.42l33.24-66.59ZM354.96,1932.71h-146.74v96.06h496.33v-96.05h-349.59ZM1148.37,1811.16l97.25,192.82h99.53l-97.61-192.82h-99.17ZM500.69,1343.94h-88.06v42.08h88.06v-42.08Z"/>
    <path class="st1" d="M1308.43,570.12v-283.3l-88.07,90.63v87.07h0v11.17h0v94.39h22.42v.04h65.65ZM1550.13,462.74l-105.5-68.09v113.79l105.5,68.1v-113.79ZM1209.02,381.05h-56.75v87.59h56.75v-87.59ZM1300.51,278.82h-148.23v91.07h59.75l88.49-91.07ZM1883.08,274.26h-153.37v84.3h60.42l92.95-84.3ZM1596.61,344.24l-138.2-88.39v112.79l138.2,89.55v-113.94ZM1787.6,435.98h15.7v23.11h88.07v-89.36h-173v-95.47h-99.64v184.84h168.87v-23.11ZM1891.37,358.56v-76.64l-84.5,76.64h84.5ZM993.96,602.89l4.65,5.97h42.92v-89.8l-39.55-52.39-86.8,22.26,78.78,113.96ZM965.98,582.59l-54.7,70.18v32.82h86.97v-56.66l-30.35-43.9-1.91-2.44ZM1041.53,332.76h-31.95v96.05h31.95s0-96.05,0-96.05ZM1308.43,581.29h-255.56v94.43h255.56v-94.43ZM1140.94,570.12v-90.31h0v-11.17h0v-87.59h0v-11.17h0v-91.07h-88.07v291.3h88.07ZM1087.83,811.7h90.96l-57.98-114.95h-90.87l52.97,105.02-.06.03,4.98,9.9ZM1209.02,570.12v-90.31h-56.75v90.29l28.37.02h28.37ZM2762.78,800.81v-239.38h-55.3v267.15l55.3-27.77ZM2824.29,441.62h39.35v-6.09h0s0-.02,0-.02h0s0,0,0,0l45.41-65.93v-82.7l-84.76,91.44v63.31ZM2860.01,555.46h-85.86v5.97h-.03v233.69l83.45-41.9v-96.65h0l68-86.81v-.73h-17.44l-44.57,64.31v-77.87h-3.56ZM2901.17,278.82h-104.75v91.5h19.93l84.82-91.5ZM2909.05,389.47l-34.07,49.47v130.08h-.07v28.55l31.12-45.02,29.91-43.38h0s130.25-189.03,130.25-189.03l.04.02,39.22-57.3h-109.18l-87.2,126.78v-.18ZM3043.03,430.46l-13.62,17.28,58.93,74.56,67.18-85.27-106.32-6.21-6.16-.36ZM3159.73,337.86l-98.1,82.5,98.1,5.73v-88.23ZM2785.08,278.82h-85.31v162.81h85.31v-162.81ZM3007.62,425.01h31.01l6.67-5.61,105.74-88.92h-78.29l-65.14,94.53ZM998.24,262.86h-86.97v215.52l86.97-22.3v-193.22ZM2561.64,497.31h-493.02v96.06h493.02v-96.06ZM2504.89,727.84v-96.06h-130.6v96.05h130.6ZM2259.6,340.81h-148.55v96.06h148.55v-96.06ZM2519.22,340.81h-148.45v96.06h148.45s0-96.06,0-96.06ZM2359.44,445.24h0v-111.7h0v-70.97s-88.62,0-88.62,0v70.97h.11v111.7h-.11v40.86h88.62v-40.86ZM2274.13,604.24v143.87l55.37,85.19h33.24v-105.47h.21v-96.05h-.21v-27.54h-88.61ZM2863.48,463.69h.16v-10.9h-163.87v91.5h163.71v-80.59ZM432.66,446.56v-27.09h-67.16s0,0,0,0h-22l-108.18,217.82h0l-8.15,16.39h27.56v-27.46h88.65l89.29-179.66ZM2233.34,696.46h.03s27.8-89.74,27.8-89.74h-94.07l-107.13,345.24h94.08l36.05-116.17-.14-.03,43.36-139.3ZM2260.44,747.76l.16-.1-20.31-31.74-35.65,114.51,68.4,107.06,46.54-98.75-59.13-90.98ZM899.93,332.76h-79.57v96.06h79.57v-96.06ZM1729.71,842.09h50.68v-91.44h-50.68v91.44ZM1729.71,739.48h50.68v-88.73h-50.68v88.73ZM1776.11,639.58l72.7-75.27h-214.6v-11.17h225.39l80.03-82.87h-377.84l-.31-.2v193.97h69.79v.29h.14v287.93h86.97v-312.67s57.74,0,57.74,0ZM2362.74,844.48h-33.38l-46.35,98.36h288.55v-98.33h-208.81v-.02ZM2857.57,765.75l-150.09,75.36h0s-.23.12-.23.12l-27.27,13.69-.04-.08v105.44l214-107.06v-60.32l-36.35,46.52v-73.68ZM1550.13,631.32h-28.52l-87.44,320.93h92.59l76.03-277.05h-52.65v-43.88ZM2992.24,850.11h-86.97v93.03h241.24v-93.02h-154.27ZM3188.29,667.51l-88.22-112.37-.1.07-77.75-98.37-.04.05-19.61-24.58-15.47,22.45.15.1-37.11,53.54-.77,1.12.93,1.18h.02s2.1,2.68,2.1,2.68l15.85,20.13-.11.14,72.02,92.76-.04.03,10.58,13.45h107.12v136.35l34.39,43.42v-147.14l-3.95-5.03ZM3060.1,838.95h86.42v-179.61l-86.42,93.69v85.92ZM2992.24,651.07h-86.97v187.86h86.97v-187.86ZM3018.01,616.23l-57-73.42-35.43,45.24h0s-54.98,70.19-54.98,70.19h0l-1.68,2.15v99.6l.03.05h-.03v.24h0v46.29l25.02-31.95v-134.72h105.47l18.61-23.67ZM3052.32,744.85l86.49-93.78h-135.23v93.78h48.74ZM1791.73,952.25h89.17v-287.93h68.32v-187.79l-157.49,163.08v312.64ZM699.59,531.8h-157.6l-89.74,94.33h247.35v-94.33ZM694.08,312.25h-.17l.17.16v-.16ZM533.75,524.12v-104.65h-89.75v4.28l.03-.06v194.74l89.72-94.3ZM604.36,416.51v91.31h89.72v-187.31l-89.72,96ZM911.27,637.73l49.13-63.53-56.67-81.98-83.92,106.93v155.67l91.46-117.17v.08ZM647.25,733.46v-96.06h-381.19v16.29h0v79.77h105.69v-.02h34.75s99.56,0,99.56,0h0s62.82,0,62.82,0v.02h78.36ZM500.69,836.67v-92.06h-88.62v92.06h88.62ZM686.39,312.25h-82.13v.06h-217.04v-.07h-65.8v96.06h275.2l89.77-96.05ZM1042.32,844.98v-98.59l-25.03-49.63h-65.79v45.48h-.38v105.9l.38-.74v91.62l90.82-94.04ZM1238.66,929.91l-.2.1-39.91-79.14h-146.28l-93.5,96.82h294.01v-17.42h-14.12v-.36ZM806.49,929.46h103.29l30-59.02v-128.2h-38.11l-95.18,187.22ZM320,441.23h-9.91v-20.85h0v-108.14h-89.73v195.58h66.42l33.24-66.59ZM354.96,847.83h-146.74v96.06h496.33v-96.05h-349.59ZM1148.37,726.29l97.25,192.82h99.53l-97.61-192.82h-99.17ZM500.69,259.06h-88.06v42.08h88.06v-42.08Z"/>
    <path class="st0" d="M1308.43,2814.17v-283.3l-88.07,90.63v87.07h0v11.17h0v94.39h22.42v.04h65.65ZM1550.13,2706.8l-105.5-68.09v113.79l105.5,68.1v-113.79ZM1209.02,2625.1h-56.75v87.59h56.75v-87.59ZM1300.51,2522.87h-148.23v91.07h59.75l88.49-91.07ZM1883.08,2518.31h-153.37v84.3h60.42l92.95-84.3ZM1596.61,2588.29l-138.2-88.39v112.79l138.2,89.55v-113.94ZM1787.6,2680.03h15.7v23.11h88.07v-89.36h-173v-95.47h-99.64v184.84h168.87v-23.11ZM1891.37,2602.61v-76.64l-84.5,76.64h84.5ZM993.96,2846.95l4.65,5.97h42.92v-89.8l-39.55-52.39-86.8,22.26,78.78,113.96ZM965.98,2826.64l-54.7,70.18v32.82h86.97v-56.66l-30.35-43.9-1.91-2.44ZM1041.53,2576.81h-31.95v96.05h31.95s0-96.05,0-96.05ZM1308.43,2825.34h-255.56v94.43h255.56v-94.43ZM1140.94,2814.17v-90.31h0v-11.17h0v-87.59h0v-11.17h0v-91.07h-88.07v291.3h88.07ZM1087.83,3055.75h90.96l-57.98-114.95h-90.87l52.97,105.02-.06.03,4.98,9.9ZM1209.02,2814.17v-90.31h-56.75v90.29l28.37.02h28.37ZM2762.78,3044.86v-239.38h-55.3v267.15l55.3-27.77ZM2824.29,2685.67h39.35v-6.09h0s0-.02,0-.02h0s0,0,0,0l45.41-65.93v-82.7l-84.76,91.44v63.31ZM2860.01,2799.51h-85.86v5.97h-.03v233.69l83.45-41.9v-96.65h0l68-86.81v-.73h-17.44l-44.57,64.31v-77.87h-3.56ZM2901.17,2522.87h-104.75v91.5h19.93l84.82-91.5ZM2909.05,2633.52l-34.07,49.47v130.08h-.07v28.55l31.12-45.02,29.91-43.38h0s130.25-189.03,130.25-189.03l.04.02,39.22-57.3h-109.18l-87.2,126.78v-.18ZM3043.03,2674.51l-13.62,17.28,58.93,74.56,67.18-85.27-106.32-6.21-6.16-.36ZM3159.73,2581.91l-98.1,82.5,98.1,5.73v-88.23ZM2785.08,2522.87h-85.31v162.81h85.31v-162.81ZM3007.62,2669.06h31.01l6.67-5.61,105.74-88.92h-78.29l-65.14,94.53ZM998.24,2506.91h-86.97v215.52l86.97-22.3v-193.22ZM2561.64,2741.36h-493.02v96.06h493.02v-96.06ZM2504.89,2971.89v-96.06h-130.6v96.05h130.6ZM2259.6,2584.86h-148.55v96.06h148.55v-96.06ZM2519.22,2584.86h-148.45v96.06h148.45s0-96.06,0-96.06ZM2359.44,2689.29h0v-111.7h0v-70.97s-88.62,0-88.62,0v70.97h.11v111.7h-.11v40.86h88.62v-40.86ZM2274.13,2848.29v143.87l55.37,85.19h33.24v-105.47h.21v-96.05h-.21v-27.54h-88.61ZM2863.48,2707.74h.16v-10.9h-163.87v91.5h163.71v-80.59ZM432.66,2690.61v-27.09h-67.16s0,0,0,0h-22l-108.18,217.82h0l-8.15,16.39h27.56v-27.46h88.65l89.29-179.66ZM2233.34,2940.51h.03s27.8-89.74,27.8-89.74h-94.07l-107.13,345.24h94.08l36.05-116.17-.14-.03,43.36-139.3ZM2260.44,2991.81l.16-.1-20.31-31.74-35.65,114.51,68.4,107.06,46.54-98.75-59.13-90.98ZM899.93,2576.81h-79.57v96.06h79.57v-96.06ZM1729.71,3086.14h50.68v-91.44h-50.68v91.44ZM1729.71,2983.53h50.68v-88.73h-50.68v88.73ZM1776.11,2883.63l72.7-75.27h-214.6v-11.17h225.39l80.03-82.87h-377.84l-.31-.2v193.97h69.79v.29h.14v287.93h86.97v-312.67s57.74,0,57.74,0ZM2362.74,3088.53h-33.38l-46.35,98.36h288.55v-98.33h-208.81v-.02ZM2857.57,3009.8l-150.09,75.36h0s-.23.12-.23.12l-27.27,13.69-.04-.08v105.44l214-107.06v-60.32l-36.35,46.52v-73.68ZM1550.13,2875.37h-28.52l-87.44,320.93h92.59l76.03-277.05h-52.65v-43.88ZM2992.24,3094.16h-86.97v93.03h241.24v-93.02h-154.27ZM3188.29,2911.56l-88.22-112.37-.1.07-77.75-98.37-.04.05-19.61-24.58-15.47,22.45.15.1-37.11,53.54-.77,1.12.93,1.18h.02s2.1,2.68,2.1,2.68l15.85,20.13-.11.14,72.02,92.76-.04.03,10.58,13.45h107.12v136.35l34.39,43.42v-147.14l-3.95-5.03ZM3060.1,3083h86.42v-179.61l-86.42,93.69v85.92ZM2992.24,2895.12h-86.97v187.86h86.97v-187.86ZM3018.01,2860.28l-57-73.42-35.43,45.24h0s-54.98,70.19-54.98,70.19h0l-1.68,2.15v99.6l.03.05h-.03v.24h0v46.29l25.02-31.95v-134.72h105.47l18.61-23.67ZM3052.32,2988.9l86.49-93.78h-135.23v93.78h48.74ZM1791.73,3196.3h89.17v-287.93h68.32v-187.79l-157.49,163.08v312.64ZM699.59,2775.85h-157.6l-89.74,94.33h247.35v-94.33ZM694.08,2556.3h-.17l.17.16v-.16ZM533.75,2768.17v-104.65h-89.75v4.28l.03-.06v194.74l89.72-94.3ZM604.36,2660.56v91.31h89.72v-187.31l-89.72,96ZM911.27,2881.78l49.13-63.53-56.67-81.98-83.92,106.93v155.67l91.46-117.17v.08ZM647.25,2977.51v-96.06h-381.19v16.29h0v79.77h105.69v-.02h34.75s99.56,0,99.56,0h0s62.82,0,62.82,0v.02h78.36ZM500.69,3080.72v-92.06h-88.62v92.06h88.62ZM686.39,2556.3h-82.13v.06h-217.04v-.07h-65.8v96.06h275.2l89.77-96.05ZM1042.32,3089.03v-98.59l-25.03-49.63h-65.79v45.48h-.38v105.9l.38-.74v91.62l90.82-94.04ZM1238.66,3173.96l-.2.1-39.91-79.14h-146.28l-93.5,96.82h294.01v-17.42h-14.12v-.36ZM806.49,3173.51h103.29l30-59.02v-128.2h-38.11l-95.18,187.22ZM320,2685.28h-9.91v-20.85h0v-108.14h-89.73v195.58h66.42l33.24-66.59ZM354.96,3091.88h-146.74v96.06h496.33v-96.05h-349.59ZM1148.37,2970.34l97.25,192.82h99.53l-97.61-192.82h-99.17ZM500.69,2503.11h-88.06v42.08h88.06v-42.08Z"/>
  </g>
</svg>